<svg width="124" height="124" xmlns="http://www.w3.org/2000/svg" xmlns:xlink="http://www.w3.org/1999/xlink"><defs><linearGradient x1="96.973%" y1="102.131%" x2="4.153%" y2="-.881%" id="a"><stop stop-color="#007FE2" offset="0%"/><stop stop-color="#39D3B8" offset="100%"/></linearGradient><linearGradient x1="247.818%" y1="247.81%" x2="-168.191%" y2="-168.187%" id="b"><stop stop-color="#007FE2" offset="0%"/><stop stop-color="#39D3B8" offset="100%"/></linearGradient><path d="M10.62 101v-9.95h.5c.113 0 .195.023.245.07.05.047.078.127.085.24l.08 2.1c.32-.807.747-1.438 1.28-1.895.533-.457 1.19-.685 1.97-.685a3.182 3.182 0 0 1 1.55.37l-.13.66c-.02.107-.087.16-.2.16a.543.543 0 0 1-.17-.04 5.456 5.456 0 0 0-.275-.09 3.285 3.285 0 0 0-.955-.13c-.753 0-1.372.233-1.855.7-.483.467-.875 1.14-1.175 2.02V101h-.95zm10.837-9.95V101h-.95v-9.95h.95zm.42-3.43c0 .12-.025.232-.075.335-.05.103-.115.195-.195.275a.905.905 0 0 1-.28.19.839.839 0 0 1-.34.07.839.839 0 0 1-.34-.07.905.905 0 0 1-.47-.465.875.875 0 0 1 0-.68.89.89 0 0 1 .47-.475.839.839 0 0 1 .34-.07c.12 0 .233.023.34.07a.905.905 0 0 1 .475.475c.05.11.075.225.075.345zM26.643 101v-9.95h.52c.174 0 .274.083.3.25l.09 1.44c.194-.273.4-.523.62-.75.22-.227.455-.422.705-.585.25-.163.517-.29.8-.38.284-.09.582-.135.895-.135.727 0 1.307.212 1.74.635.434.423.727 1.012.88 1.765.12-.413.289-.77.505-1.07.217-.3.465-.548.745-.745.28-.197.585-.343.915-.44.33-.097.669-.145 1.015-.145.494 0 .937.082 1.33.245.394.163.729.405 1.005.725.277.32.489.713.635 1.18.147.467.22 1 .22 1.6V101h-.96v-6.36c0-.973-.21-1.715-.63-2.225-.42-.51-1.02-.765-1.8-.765-.346 0-.678.063-.995.19a2.411 2.411 0 0 0-.84.565c-.243.25-.436.562-.58.935-.143.373-.215.807-.215 1.3V101h-.95v-6.36c0-.967-.193-1.707-.58-2.22-.386-.513-.95-.77-1.69-.77-.54 0-1.04.162-1.5.485-.46.323-.87.772-1.23 1.345V101h-.95zM47.5 90.88c.433 0 .835.053 1.205.16.37.107.702.257.995.45h2.55v.33c0 .167-.093.257-.28.27l-1.51.11c.187.253.33.538.43.855.1.317.15.655.15 1.015 0 .48-.087.915-.26 1.305-.173.39-.415.723-.725 1s-.682.492-1.115.645c-.433.153-.913.23-1.44.23a4.452 4.452 0 0 1-1.56-.26c-.28.16-.5.35-.66.57-.16.22-.24.433-.24.64 0 .287.1.507.3.66.2.153.465.265.795.335s.707.115 1.13.135c.423.02.853.042 1.29.065.437.023.867.065 1.29.125.423.06.8.165 1.13.315.33.15.595.36.795.63.2.27.3.628.3 1.075 0 .413-.103.81-.31 1.19-.207.38-.505.717-.895 1.01-.39.293-.862.528-1.415.705a6.1 6.1 0 0 1-1.86.265c-.7 0-1.313-.072-1.84-.215-.527-.143-.968-.337-1.325-.58a2.54 2.54 0 0 1-.805-.845c-.18-.32-.27-.66-.27-1.02 0-.527.173-.98.52-1.36.347-.38.823-.673 1.43-.88a1.878 1.878 0 0 1-.795-.49c-.197-.213-.295-.51-.295-.89 0-.14.027-.287.08-.44.053-.153.133-.305.24-.455.107-.15.235-.292.385-.425.15-.133.325-.253.525-.36a2.965 2.965 0 0 1-1.105-1.09c-.263-.453-.395-.983-.395-1.59 0-.48.085-.915.255-1.305.17-.39.41-.725.72-1.005.31-.28.685-.497 1.125-.65.44-.153.927-.23 1.46-.23zm3.69 10.79c0-.313-.082-.565-.245-.755a1.62 1.62 0 0 0-.655-.445 3.893 3.893 0 0 0-.945-.225c-.357-.043-.73-.075-1.12-.095l-1.175-.06a8.96 8.96 0 0 1-1.1-.12c-.253.1-.488.215-.705.345-.217.13-.402.277-.555.44a1.912 1.912 0 0 0-.36.54c-.087.197-.13.412-.13.645 0 .293.075.565.225.815.15.25.37.467.66.65.29.183.645.328 1.065.435.42.107.903.16 1.45.16.507 0 .978-.057 1.415-.17a3.94 3.94 0 0 0 1.14-.48c.323-.207.577-.453.76-.74.183-.287.275-.6.275-.94zM47.5 96.6c.427 0 .807-.062 1.14-.185.333-.123.613-.295.84-.515.227-.22.398-.483.515-.79.117-.307.175-.647.175-1.02s-.06-.715-.18-1.025a2.166 2.166 0 0 0-.525-.795c-.23-.22-.51-.39-.84-.51-.33-.12-.705-.18-1.125-.18-.42 0-.797.06-1.13.18a2.36 2.36 0 0 0-.845.51c-.23.22-.405.485-.525.795-.12.31-.18.652-.18 1.025 0 .373.06.713.18 1.02.12.307.295.57.525.79.23.22.512.392.845.515.333.123.71.185 1.13.185z" id="c"/><path d="M.594 121v-4.617h.652c.115 0 .194.021.239.063.045.042.075.114.09.216l.068.558c.165-.285.358-.51.58-.675.222-.165.471-.248.747-.248.228 0 .417.053.567.158l-.144.832c-.009.054-.028.093-.058.115a.198.198 0 0 1-.122.034.758.758 0 0 1-.184-.032 1.235 1.235 0 0 0-.311-.031.943.943 0 0 0-.594.191 1.473 1.473 0 0 0-.419.56V121H.595zm6.335-4.689c.29 0 .558.046.803.14a1.759 1.759 0 0 1 1.046 1.064 2.481 2.481 0 0 1 .137 1.098.335.335 0 0 1-.04.13.164.164 0 0 1-.079.068.336.336 0 0 1-.126.02H5.817c.033.474.16.822.383 1.044.222.222.515.333.882.333.18 0 .335-.021.465-.063.13-.042.245-.088.342-.14.098-.05.183-.097.257-.139a.43.43 0 0 1 .214-.063.24.24 0 0 1 .117.027.258.258 0 0 1 .085.076l.324.405a1.852 1.852 0 0 1-.414.363 2.322 2.322 0 0 1-.48.234 2.62 2.62 0 0 1-.508.123 3.64 3.64 0 0 1-.501.036c-.322 0-.62-.053-.896-.16a2.005 2.005 0 0 1-.72-.472 2.217 2.217 0 0 1-.481-.774 2.995 2.995 0 0 1-.176-1.069c0-.315.051-.61.153-.888a2.066 2.066 0 0 1 1.136-1.213c.275-.12.584-.18.93-.18zm.022.796c-.324 0-.577.092-.76.275-.184.183-.3.442-.351.778h2.088c0-.144-.02-.28-.059-.407a.94.94 0 0 0-.18-.335.852.852 0 0 0-.306-.227 1.042 1.042 0 0 0-.432-.084zm6.37.176a.297.297 0 0 1-.094.101.245.245 0 0 1-.126.03.397.397 0 0 1-.173-.046l-.214-.1a1.958 1.958 0 0 0-.277-.102 1.325 1.325 0 0 0-.366-.045c-.22 0-.392.047-.518.14a.433.433 0 0 0-.189.364c0 .099.032.182.097.25a.87.87 0 0 0 .256.177c.107.051.227.097.363.138.135.04.272.085.414.133.14.048.278.102.414.164.135.061.255.14.362.234.106.094.192.207.256.34.065.132.097.29.097.476 0 .223-.04.427-.121.615-.082.187-.2.35-.356.486a1.666 1.666 0 0 1-.578.32c-.23.076-.493.114-.79.114-.159 0-.314-.014-.466-.043a2.75 2.75 0 0 1-.436-.119 2.416 2.416 0 0 1-.387-.18 1.878 1.878 0 0 1-.313-.225l.257-.423a.363.363 0 0 1 .117-.117.328.328 0 0 1 .17-.04.36.36 0 0 1 .196.058c.062.039.133.081.214.126.081.045.176.087.286.126.11.039.248.058.416.058.132 0 .245-.015.34-.047a.719.719 0 0 0 .234-.123.465.465 0 0 0 .135-.178.533.533 0 0 0 .043-.21.373.373 0 0 0-.097-.265.847.847 0 0 0-.257-.18 2.477 2.477 0 0 0-.364-.137c-.137-.04-.276-.085-.419-.133a3.871 3.871 0 0 1-.418-.169 1.426 1.426 0 0 1-.365-.245 1.11 1.11 0 0 1-.256-.364 1.272 1.272 0 0 1-.097-.523c0-.189.037-.368.113-.54.075-.17.185-.32.33-.447.146-.128.327-.23.545-.306.217-.077.468-.115.754-.115.318 0 .607.052.868.157.261.106.478.243.653.414l-.252.401zm1.943 5.224v-6.124h.68c.072 0 .133.017.184.05a.231.231 0 0 1 .099.152l.09.428c.186-.213.4-.385.641-.517.242-.133.524-.198.849-.198.252 0 .482.052.69.157.209.105.389.257.54.457.152.2.269.445.351.738.083.292.124.627.124 1.005 0 .346-.046.665-.14.959a2.345 2.345 0 0 1-.398.765 1.84 1.84 0 0 1-.625.506 1.82 1.82 0 0 1-.821.182c-.262 0-.483-.04-.664-.119a1.625 1.625 0 0 1-.488-.33v1.89h-1.112zm2.16-5.332c-.231 0-.428.049-.592.146a1.711 1.711 0 0 0-.456.412v2.07c.126.156.263.265.411.326.149.062.308.093.48.093.168 0 .32-.032.456-.095a.886.886 0 0 0 .347-.288c.094-.129.167-.292.218-.488a2.79 2.79 0 0 0 .077-.695c0-.27-.022-.5-.066-.687a1.326 1.326 0 0 0-.186-.456.738.738 0 0 0-.295-.257.92.92 0 0 0-.394-.081zm5.65-.864c.346 0 .658.055.939.166.28.112.52.269.718.473.198.204.35.453.459.747.108.294.162.622.162.986 0 .366-.054.695-.162.99a2.138 2.138 0 0 1-.46.751 1.994 1.994 0 0 1-.717.477 2.53 2.53 0 0 1-.938.166c-.346 0-.659-.055-.941-.166a2.012 2.012 0 0 1-.722-.477 2.147 2.147 0 0 1-.464-.752 2.82 2.82 0 0 1-.164-.99c0-.363.055-.691.164-.985a2.1 2.1 0 0 1 .464-.747c.2-.204.44-.361.722-.472.282-.112.595-.167.94-.167zm0 3.901c.385 0 .669-.128.853-.386.185-.259.277-.636.277-1.134 0-.499-.092-.878-.277-1.139-.184-.261-.468-.391-.852-.391-.39 0-.678.13-.864.393-.187.263-.28.641-.28 1.136 0 .496.093.873.28 1.132.186.26.473.39.864.39zm3.896.788v-4.617h.68c.144 0 .238.067.283.203l.077.364c.093-.096.19-.183.294-.261.104-.078.213-.145.329-.202.115-.057.239-.101.371-.131s.276-.045.432-.045c.252 0 .475.043.67.128.196.086.358.206.489.36.13.155.23.34.297.554.067.214.101.45.101.709V121h-1.111v-2.939c0-.282-.066-.5-.196-.654-.13-.155-.326-.232-.587-.232-.193 0-.372.044-.54.13a1.935 1.935 0 0 0-.477.356V121H26.97zm8.607-3.717a.297.297 0 0 1-.094.101.245.245 0 0 1-.126.03.397.397 0 0 1-.174-.046c-.061-.03-.132-.063-.213-.1a1.958 1.958 0 0 0-.277-.102 1.325 1.325 0 0 0-.367-.045c-.219 0-.391.047-.517.14a.433.433 0 0 0-.19.364c0 .099.033.182.097.25a.87.87 0 0 0 .257.177c.106.051.227.097.362.138.135.04.273.085.414.133.141.048.279.102.414.164.135.061.256.14.362.234.107.094.192.207.257.34.064.132.097.29.097.476 0 .223-.041.427-.122.615-.081.187-.2.35-.355.486a1.666 1.666 0 0 1-.579.32c-.23.076-.492.114-.79.114-.159 0-.314-.014-.465-.043a2.75 2.75 0 0 1-.437-.119 2.416 2.416 0 0 1-.387-.18 1.878 1.878 0 0 1-.312-.225l.256-.423a.363.363 0 0 1 .117-.117.328.328 0 0 1 .171-.04.36.36 0 0 1 .196.058c.061.039.133.081.214.126.08.045.176.087.285.126.11.039.248.058.417.058.132 0 .245-.015.34-.047a.719.719 0 0 0 .233-.123.465.465 0 0 0 .135-.178.533.533 0 0 0 .043-.21.373.373 0 0 0-.097-.265.847.847 0 0 0-.256-.18 2.477 2.477 0 0 0-.365-.137c-.136-.04-.276-.085-.418-.133a3.871 3.871 0 0 1-.419-.169 1.426 1.426 0 0 1-.364-.245 1.11 1.11 0 0 1-.257-.364 1.272 1.272 0 0 1-.096-.523c0-.189.037-.368.112-.54.075-.17.185-.32.33-.447.146-.128.328-.23.545-.306.218-.077.469-.115.754-.115.318 0 .607.052.869.157.26.106.478.243.652.414l-.252.401zm3.126-.9V121h-1.111v-4.617h1.111zm.167-1.346c0 .096-.02.186-.059.27a.742.742 0 0 1-.382.372.697.697 0 0 1-.552 0 .721.721 0 0 1-.373-.371.697.697 0 0 1 0-.549.714.714 0 0 1 .373-.376.697.697 0 0 1 .551 0 .726.726 0 0 1 .383.376c.039.087.059.18.059.278zM43.022 121h-1.008l-1.836-4.617h.922c.081 0 .15.02.205.059a.3.3 0 0 1 .115.148l.89 2.466c.052.144.094.285.129.423.034.138.065.276.092.414.027-.138.058-.276.092-.414a3.9 3.9 0 0 1 .133-.423l.914-2.466a.304.304 0 0 1 .112-.148.322.322 0 0 1 .194-.059h.877L43.022 121zm4.998-4.689c.29 0 .558.046.803.14a1.759 1.759 0 0 1 1.046 1.064 2.481 2.481 0 0 1 .137 1.098.335.335 0 0 1-.04.13.164.164 0 0 1-.079.068.336.336 0 0 1-.126.02h-2.853c.033.474.16.822.383 1.044.222.222.515.333.882.333.18 0 .335-.021.465-.063.13-.042.245-.088.342-.14.098-.05.183-.097.257-.139a.43.43 0 0 1 .214-.063.24.24 0 0 1 .117.027.258.258 0 0 1 .085.076l.324.405a1.852 1.852 0 0 1-.414.363 2.322 2.322 0 0 1-.48.234 2.62 2.62 0 0 1-.508.123 3.64 3.64 0 0 1-.501.036c-.322 0-.62-.053-.896-.16a2.005 2.005 0 0 1-.72-.472 2.217 2.217 0 0 1-.481-.774 2.995 2.995 0 0 1-.176-1.069c0-.315.051-.61.153-.888a2.066 2.066 0 0 1 1.136-1.213c.275-.12.584-.18.93-.18zm.022.796c-.324 0-.577.092-.76.275-.183.183-.3.442-.351.778h2.088c0-.144-.02-.28-.059-.407a.94.94 0 0 0-.18-.335.852.852 0 0 0-.306-.227 1.042 1.042 0 0 0-.432-.084zm7.3-.724V121h-1.111v-4.617h1.112zm.167-1.346c0 .096-.02.186-.058.27a.742.742 0 0 1-.383.372.697.697 0 0 1-.551 0 .721.721 0 0 1-.374-.371.697.697 0 0 1 0-.549.714.714 0 0 1 .374-.376.697.697 0 0 1 .551 0 .726.726 0 0 1 .383.376c.039.087.058.18.058.278zM57.348 121v-4.617h.68c.144 0 .238.067.283.203l.072.341c.081-.09.166-.172.254-.247a1.535 1.535 0 0 1 .608-.322c.115-.031.242-.047.38-.047.291 0 .53.079.718.236.187.158.328.367.42.628a1.409 1.409 0 0 1 .626-.662c.129-.069.266-.12.412-.153.145-.032.292-.049.439-.049.255 0 .481.039.679.117.198.078.365.192.5.342.135.15.237.333.308.549.07.216.106.463.106.742V121H62.72v-2.939c0-.294-.064-.515-.193-.663-.13-.149-.318-.223-.567-.223-.114 0-.22.02-.318.059a.756.756 0 0 0-.256.168.77.77 0 0 0-.173.277 1.076 1.076 0 0 0-.063.382V121h-1.116v-2.939c0-.309-.063-.533-.187-.675-.125-.14-.308-.211-.551-.211a.89.89 0 0 0-.448.12c-.14.079-.27.187-.39.326V121h-1.111zm11.946 0h-.5a.538.538 0 0 1-.247-.047c-.06-.032-.105-.096-.135-.192l-.099-.328a3.812 3.812 0 0 1-.344.277 2.09 2.09 0 0 1-.349.2c-.12.054-.247.094-.382.121-.135.027-.285.041-.45.041-.195 0-.375-.026-.54-.079a1.164 1.164 0 0 1-.426-.236 1.073 1.073 0 0 1-.276-.392 1.389 1.389 0 0 1-.1-.544c0-.174.046-.346.138-.515.091-.17.244-.323.457-.46.213-.136.496-.249.85-.339.354-.09.793-.141 1.319-.153v-.27c0-.309-.066-.538-.196-.686-.13-.149-.32-.223-.57-.223a1.378 1.378 0 0 0-.762.205c-.089.052-.17.1-.245.142a.498.498 0 0 1-.248.063.322.322 0 0 1-.193-.059.46.46 0 0 1-.131-.144l-.202-.356c.53-.486 1.171-.728 1.921-.728.27 0 .51.044.722.132.212.089.391.212.538.37.147.157.259.345.335.564.077.219.115.459.115.72V121zm-2.16-.693c.114 0 .219-.01.315-.032.096-.02.187-.052.272-.094.086-.042.168-.094.248-.155.08-.062.16-.135.24-.218v-.779a6.086 6.086 0 0 0-.812.083c-.217.04-.392.093-.524.156a.674.674 0 0 0-.281.22.488.488 0 0 0-.083.275c0 .195.057.334.173.418a.75.75 0 0 0 .452.126zm5.601-4.005c.198 0 .384.02.558.06.174.041.333.1.477.178h1.328v.414a.23.23 0 0 1-.054.163c-.036.038-.098.066-.185.08l-.414.077a1.43 1.43 0 0 1 .095.522c0 .228-.046.434-.138.619a1.387 1.387 0 0 1-.378.47c-.16.129-.35.229-.571.3a2.587 2.587 0 0 1-1.226.056c-.144.087-.216.184-.216.292 0 .093.042.161.128.205.085.043.198.074.337.092.14.018.298.03.475.034.177.004.359.014.545.029.186.015.367.041.544.079.177.037.335.097.475.178a.95.95 0 0 1 .337.33c.086.14.129.319.129.538 0 .204-.05.402-.151.594-.1.192-.246.363-.437.513-.19.15-.423.27-.7.362a2.999 2.999 0 0 1-.944.138c-.352 0-.656-.034-.914-.102a2.133 2.133 0 0 1-.641-.27 1.17 1.17 0 0 1-.38-.389.913.913 0 0 1-.126-.459c0-.216.066-.397.198-.544.132-.148.315-.264.549-.352a.766.766 0 0 1-.275-.252.733.733 0 0 1-.103-.409c0-.069.012-.14.036-.214a.854.854 0 0 1 .11-.218c.05-.072.112-.14.187-.205.075-.064.163-.122.265-.173a1.457 1.457 0 0 1-.551-.504c-.134-.21-.2-.456-.2-.738 0-.228.045-.434.137-.619.091-.184.219-.342.382-.472.164-.13.357-.23.58-.3.224-.069.468-.103.732-.103zm1.22 4.905a.308.308 0 0 0-.081-.22.532.532 0 0 0-.221-.133 1.631 1.631 0 0 0-.326-.07 6.017 6.017 0 0 0-.396-.034l-.432-.022a5.449 5.449 0 0 1-.43-.038c-.126.069-.227.15-.304.245a.504.504 0 0 0-.114.326c0 .081.02.157.06.227.04.07.105.132.194.183.088.05.203.09.344.119.141.028.314.042.518.042.207 0 .385-.015.535-.047.15-.031.274-.075.371-.13a.561.561 0 0 0 .214-.198.484.484 0 0 0 .068-.25zm-1.22-2.628c.138 0 .258-.019.36-.056a.64.64 0 0 0 .407-.394.873.873 0 0 0 .052-.306c0-.228-.068-.409-.205-.542-.136-.134-.341-.2-.614-.2-.273 0-.478.066-.614.2-.137.133-.205.314-.205.542a.86.86 0 0 0 .052.302.66.66 0 0 0 .153.24c.067.068.153.12.256.158.104.037.223.056.358.056zm5.718-2.268c.291 0 .559.046.803.14a1.759 1.759 0 0 1 1.047 1.064 2.481 2.481 0 0 1 .137 1.098.335.335 0 0 1-.04.13.164.164 0 0 1-.08.068.336.336 0 0 1-.125.02h-2.853c.033.474.16.822.382 1.044.222.222.516.333.882.333.18 0 .335-.021.466-.063.13-.042.244-.088.342-.14.097-.05.183-.097.256-.139a.43.43 0 0 1 .214-.063.24.24 0 0 1 .117.027.258.258 0 0 1 .086.076l.324.405a1.852 1.852 0 0 1-.414.363 2.322 2.322 0 0 1-.48.234 2.62 2.62 0 0 1-.508.123 3.64 3.64 0 0 1-.502.036c-.321 0-.62-.053-.895-.16a2.005 2.005 0 0 1-.72-.472 2.217 2.217 0 0 1-.482-.774 2.995 2.995 0 0 1-.175-1.069c0-.315.05-.61.153-.888.102-.278.248-.52.438-.725.19-.205.423-.368.698-.488.274-.12.584-.18.929-.18zm.023.796c-.325 0-.578.092-.761.275-.183.183-.3.442-.351.778h2.088c0-.144-.02-.28-.058-.407a.94.94 0 0 0-.18-.335.852.852 0 0 0-.306-.227 1.042 1.042 0 0 0-.432-.084zm9.361.252a.554.554 0 0 1-.097.1.223.223 0 0 1-.137.035.306.306 0 0 1-.166-.051 5.357 5.357 0 0 0-.194-.117 1.23 1.23 0 0 0-.652-.169c-.195 0-.366.035-.513.106a.972.972 0 0 0-.367.303c-.098.133-.17.292-.218.48-.048.187-.072.4-.072.636 0 .247.026.465.078.657.053.193.129.354.228.484s.219.23.36.297c.14.068.3.102.477.102s.32-.022.43-.066c.109-.043.201-.091.276-.144.075-.052.14-.1.196-.144a.295.295 0 0 1 .187-.065c.09 0 .157.035.202.103l.32.405a2.01 2.01 0 0 1-.401.363 2.165 2.165 0 0 1-.927.357 3.404 3.404 0 0 1-.49.036c-.285 0-.554-.053-.806-.16a1.88 1.88 0 0 1-.66-.465 2.244 2.244 0 0 1-.445-.75 2.895 2.895 0 0 1-.164-1.01c0-.339.049-.653.146-.942.098-.29.241-.54.43-.752a1.97 1.97 0 0 1 .702-.497c.279-.12.6-.18.963-.18.345 0 .647.055.907.166.26.112.493.27.7.477l-.293.406zM89.636 121v-4.617h.652c.114 0 .194.021.239.063.045.042.075.114.09.216l.067.558c.165-.285.359-.51.58-.675.223-.165.472-.248.748-.248.228 0 .417.053.567.158l-.144.832c-.01.054-.029.093-.059.115a.198.198 0 0 1-.121.034.758.758 0 0 1-.185-.032 1.235 1.235 0 0 0-.31-.031.943.943 0 0 0-.594.191 1.473 1.473 0 0 0-.419.56V121h-1.111zm6.334-4.689c.291 0 .559.046.803.14a1.759 1.759 0 0 1 1.047 1.064 2.481 2.481 0 0 1 .137 1.098.335.335 0 0 1-.04.13.164.164 0 0 1-.08.068.336.336 0 0 1-.125.02h-2.853c.033.474.16.822.382 1.044.222.222.516.333.882.333.18 0 .335-.021.466-.063.13-.042.244-.088.342-.14.097-.05.183-.097.256-.139a.43.43 0 0 1 .214-.063.24.24 0 0 1 .117.027.258.258 0 0 1 .086.076l.324.405a1.852 1.852 0 0 1-.414.363 2.322 2.322 0 0 1-.48.234 2.62 2.62 0 0 1-.508.123 3.64 3.64 0 0 1-.502.036c-.321 0-.62-.053-.895-.16a2.005 2.005 0 0 1-.72-.472 2.217 2.217 0 0 1-.482-.774 2.995 2.995 0 0 1-.175-1.069c0-.315.05-.61.153-.888.102-.278.248-.52.438-.725.19-.205.423-.368.698-.488.274-.12.584-.18.929-.18zm.023.796c-.324 0-.578.092-.761.275-.183.183-.3.442-.351.778h2.088c0-.144-.02-.28-.058-.407a.94.94 0 0 0-.18-.335.852.852 0 0 0-.306-.227 1.042 1.042 0 0 0-.432-.084zM103.24 121h-.5a.538.538 0 0 1-.247-.047c-.06-.032-.105-.096-.135-.192l-.1-.328a3.812 3.812 0 0 1-.344.277 2.09 2.09 0 0 1-.348.2c-.12.054-.248.094-.383.121-.135.027-.285.041-.45.041-.195 0-.375-.026-.54-.079a1.164 1.164 0 0 1-.425-.236 1.073 1.073 0 0 1-.277-.392 1.389 1.389 0 0 1-.099-.544c0-.174.046-.346.137-.515.092-.17.244-.323.457-.46.213-.136.497-.249.85-.339.355-.09.794-.141 1.319-.153v-.27c0-.309-.065-.538-.196-.686-.13-.149-.32-.223-.569-.223a1.378 1.378 0 0 0-.763.205c-.088.052-.17.1-.245.142a.498.498 0 0 1-.247.063.322.322 0 0 1-.194-.059.46.46 0 0 1-.13-.144l-.203-.356c.531-.486 1.171-.728 1.922-.728.27 0 .51.044.722.132.211.089.39.212.538.37.147.157.258.345.335.564.076.219.115.459.115.72V121zm-2.16-.693c.114 0 .219-.01.315-.032.096-.02.186-.052.272-.094.085-.042.168-.094.247-.155.08-.062.16-.135.241-.218v-.779a6.086 6.086 0 0 0-.812.083c-.218.04-.392.093-.524.156a.674.674 0 0 0-.282.22.488.488 0 0 0-.083.275c0 .195.058.334.173.418a.75.75 0 0 0 .453.126zm5.52.765c-.4 0-.707-.113-.923-.34-.216-.226-.324-.539-.324-.938v-2.578h-.468a.225.225 0 0 1-.155-.059c-.044-.039-.065-.097-.065-.175v-.442l.742-.121.234-1.26a.223.223 0 0 1 .083-.14.264.264 0 0 1 .165-.049h.576v1.454h1.215v.791h-1.215v2.502a.49.49 0 0 0 .108.338.366.366 0 0 0 .288.121.523.523 0 0 0 .173-.024.954.954 0 0 0 .214-.104.154.154 0 0 1 .08-.025c.034 0 .06.009.082.025a.375.375 0 0 1 .067.075l.333.54a1.683 1.683 0 0 1-.558.306c-.21.069-.427.103-.652.103zm3.9-4.689V121h-1.112v-4.617h1.112zm.166-1.346c0 .096-.02.186-.058.27a.742.742 0 0 1-.383.372.697.697 0 0 1-.551 0 .721.721 0 0 1-.374-.371.697.697 0 0 1 0-.549.714.714 0 0 1 .374-.376.697.697 0 0 1 .551 0 .726.726 0 0 1 .383.376c.039.087.058.18.058.278zm3.81 1.274c.345 0 .658.055.938.166.28.112.52.269.718.473.198.204.351.453.459.747.108.294.162.622.162.986 0 .366-.054.695-.162.99a2.138 2.138 0 0 1-.459.751 1.994 1.994 0 0 1-.718.477 2.53 2.53 0 0 1-.938.166c-.345 0-.658-.055-.94-.166a2.012 2.012 0 0 1-.723-.477 2.147 2.147 0 0 1-.463-.752 2.82 2.82 0 0 1-.164-.99c0-.363.054-.691.164-.985a2.1 2.1 0 0 1 .463-.747c.2-.204.44-.361.723-.472.282-.112.595-.167.94-.167zm0 3.901c.384 0 .668-.128.853-.386.184-.259.277-.636.277-1.134 0-.499-.093-.878-.277-1.139-.185-.261-.469-.391-.853-.391-.39 0-.678.13-.864.393-.186.263-.279.641-.279 1.136 0 .496.093.873.279 1.132.186.26.474.39.864.39zm3.896.788v-4.617h.679c.144 0 .239.067.284.203l.076.364c.093-.096.191-.183.295-.261.103-.078.213-.145.328-.202.116-.057.24-.101.372-.131s.276-.045.432-.045c.252 0 .475.043.67.128.195.086.358.206.488.36.13.155.23.34.297.554.068.214.102.45.102.709V121h-1.112v-2.939c0-.282-.065-.5-.196-.654-.13-.155-.326-.232-.587-.232-.192 0-.372.044-.54.13a1.935 1.935 0 0 0-.477.356V121h-1.111z" id="d"/></defs><g fill="none" fill-rule="evenodd"><g fill-rule="nonzero"><path d="M121.035.337H2.965A2.965 2.965 0 0 0 0 3.303v52.9a2.965 2.965 0 0 0 5.93 0V6.268h112.14v95.524L81.208 63.805c-1.117-1.15-3.14-1.15-4.255 0L61.697 79.528 34.877 51.89c-1.117-1.15-3.139-1.15-4.255 0L.838 82.582c-.045.047-.077.102-.119.15-.08.095-.162.188-.23.291-.05.077-.087.159-.13.239-.047.09-.099.177-.137.272-.038.093-.06.19-.089.284-.026.09-.058.176-.075.27-.022.118-.028.238-.037.358-.004.067-.02.131-.02.2v24.456a2.965 2.965 0 0 0 2.966 2.965H96.13a2.965 2.965 0 0 0 0-5.93H5.93V85.849l26.82-27.637 32.41 33.4c.581.598 1.354.9 2.128.9a2.965 2.965 0 0 0 2.128-5.03l-3.589-3.699L79.08 70.127l39.828 41.041a2.963 2.963 0 0 0 5.092-2.065V3.303a2.965 2.965 0 0 0-2.965-2.966z" fill="url(#a)"/><path d="M91.19 47.88c7.628 0 13.834-6.206 13.834-13.835 0-7.628-6.206-13.833-13.834-13.833-7.627 0-13.833 6.206-13.833 13.833 0 7.628 6.206 13.835 13.833 13.835zm0-21.738c4.359 0 7.904 3.545 7.904 7.903 0 4.359-3.545 7.904-7.904 7.904-4.358 0-7.903-3.545-7.903-7.904 0-4.358 3.545-7.903 7.903-7.903z" fill="url(#b)"/></g><use fill-opacity="0" fill="#E45D5D" xlink:href="#c"/><use fill="url(#a)" xlink:href="#c"/><g><use fill-opacity=".99" fill="#C91818" xlink:href="#d"/><use fill="url(#a)" xlink:href="#d"/></g></g></svg>