<?xml version="1.0" encoding="UTF-8"?>
<svg width="124px" height="124px" viewBox="0 0 124 124" version="1.1" xmlns="http://www.w3.org/2000/svg" xmlns:xlink="http://www.w3.org/1999/xlink">
    <!-- Generator: Sketch 50.2 (55047) - http://www.bohemiancoding.com/sketch -->
    <title>logo</title>
    <desc>Created with Sketch.</desc>
    <defs>
        <linearGradient x1="96.9728%" y1="102.130898%" x2="4.1528%" y2="-0.881184383%" id="linearGradient-1">
            <stop stop-color="#007FE2" offset="0%"></stop>
            <stop stop-color="#39D3B8" offset="100%"></stop>
        </linearGradient>
        <linearGradient x1="247.818214%" y1="247.809914%" x2="-168.191108%" y2="-168.186979%" id="linearGradient-2">
            <stop stop-color="#007FE2" offset="0%"></stop>
            <stop stop-color="#39D3B8" offset="100%"></stop>
        </linearGradient>
        <path d="M10.62,101 L10.62,91.05 L11.12,91.05 C11.2333339,91.05 11.3149998,91.0733331 11.365,91.12 C11.4150003,91.1666669 11.4433333,91.2466661 11.45,91.36 L11.53,93.46 C11.8500016,92.6533293 12.276664,92.021669 12.81,91.565 C13.343336,91.1083311 13.9999961,90.88 14.78,90.88 C15.0800015,90.88 15.3566654,90.9116663 15.61,90.975 C15.8633346,91.0383336 16.1033322,91.1299994 16.33,91.25 L16.2,91.91 C16.1799999,92.0166672 16.1133339,92.07 16,92.07 C15.9599998,92.07 15.9033337,92.0566668 15.83,92.03 C15.7566663,92.0033332 15.6650005,91.9733335 15.555,91.94 C15.4449995,91.9066665 15.3100008,91.8766668 15.15,91.85 C14.9899992,91.8233332 14.8066677,91.81 14.6,91.81 C13.8466629,91.81 13.2283357,92.043331 12.745,92.51 C12.2616642,92.976669 11.8700015,93.6499956 11.57,94.53 L11.57,101 L10.62,101 Z M21.4566665,91.05 L21.4566665,101 L20.5066665,101 L20.5066665,91.05 L21.4566665,91.05 Z M21.8766665,87.62 C21.8766665,87.7400006 21.8516668,87.8516661 21.8016665,87.955 C21.7516663,88.0583338 21.6866669,88.1499996 21.6066665,88.23 C21.5266661,88.3100004 21.4333337,88.3733331 21.3266665,88.42 C21.2199993,88.4666669 21.1066671,88.49 20.9866665,88.49 C20.8666659,88.49 20.7533337,88.4666669 20.6466665,88.42 C20.5399993,88.3733331 20.4466669,88.3100004 20.3666665,88.23 C20.2866661,88.1499996 20.2233334,88.0583338 20.1766665,87.955 C20.1299996,87.8516661 20.1066665,87.7400006 20.1066665,87.62 C20.1066665,87.4999994 20.1299996,87.3850006 20.1766665,87.275 C20.2233334,87.1649994 20.2866661,87.0700004 20.3666665,86.99 C20.4466669,86.9099996 20.5399993,86.8466669 20.6466665,86.8 C20.7533337,86.7533331 20.8666659,86.73 20.9866665,86.73 C21.1066671,86.73 21.2199993,86.7533331 21.3266665,86.8 C21.4333337,86.8466669 21.5266661,86.9099996 21.6066665,86.99 C21.6866669,87.0700004 21.7516663,87.1649994 21.8016665,87.275 C21.8516668,87.3850006 21.8766665,87.4999994 21.8766665,87.62 Z M26.643333,101 L26.643333,91.05 L27.163333,91.05 C27.3366672,91.05 27.4366662,91.1333325 27.463333,91.3 L27.553333,92.74 C27.7466673,92.4666653 27.9533319,92.2166678 28.173333,91.99 C28.3933341,91.7633322 28.6283318,91.5683341 28.878333,91.405 C29.1283343,91.2416659 29.3949983,91.1150004 29.678333,91.025 C29.9616678,90.9349996 30.2599981,90.89 30.573333,90.89 C31.3000033,90.89 31.8799975,91.1016645 32.313333,91.525 C32.7466685,91.9483355 33.0399989,92.5366629 33.193333,93.29 C33.3133336,92.8766646 33.4816653,92.5200015 33.698333,92.22 C33.9150008,91.9199985 34.1633316,91.6716677 34.443333,91.475 C34.7233344,91.2783323 35.0283314,91.1316671 35.358333,91.035 C35.6883347,90.9383328 36.0266646,90.89 36.373333,90.89 C36.8666688,90.89 37.3099977,90.9716658 37.703333,91.135 C38.0966683,91.2983342 38.431665,91.5399984 38.708333,91.86 C38.9850011,92.1800016 39.1966656,92.573331 39.343333,93.04 C39.4900004,93.506669 39.563333,94.039997 39.563333,94.64 L39.563333,101 L38.603333,101 L38.603333,94.64 C38.603333,93.6666618 38.3933351,92.9250026 37.973333,92.415 C37.5533309,91.9049974 36.9533369,91.65 36.173333,91.65 C35.8266646,91.65 35.4950013,91.7133327 35.178333,91.84 C34.8616648,91.9666673 34.5816676,92.1549988 34.338333,92.405 C34.0949985,92.6550012 33.9016671,92.9666648 33.758333,93.34 C33.614999,93.7133352 33.543333,94.1466642 33.543333,94.64 L33.543333,101 L32.593333,101 L32.593333,94.64 C32.593333,93.6733285 32.4000016,92.9333359 32.013333,92.42 C31.6266644,91.9066641 31.0633367,91.65 30.323333,91.65 C29.7833303,91.65 29.2833353,91.8116651 28.823333,92.135 C28.3633307,92.4583349 27.9533348,92.9066638 27.593333,93.48 L27.593333,101 L26.643333,101 Z M47.4999995,90.88 C47.933335,90.88 48.3349977,90.9333328 48.7049995,91.04 C49.0750014,91.1466672 49.4066647,91.2966657 49.6999995,91.49 L52.2499995,91.49 L52.2499995,91.82 C52.2499995,91.9866675 52.1566671,92.0766666 51.9699995,92.09 L50.4599995,92.2 C50.6466671,92.4533346 50.789999,92.7383318 50.8899995,93.055 C50.99,93.3716682 51.0399995,93.7099982 51.0399995,94.07 C51.0399995,94.5500024 50.9533337,94.9849981 50.7799995,95.375 C50.6066653,95.7650019 50.3650011,96.098332 50.0549995,96.375 C49.744998,96.651668 49.373335,96.8666659 48.9399995,97.02 C48.506664,97.1733341 48.0266688,97.25 47.4999995,97.25 C46.9266633,97.25 46.4066685,97.1633342 45.9399995,96.99 C45.6599981,97.1500008 45.4400003,97.3399989 45.2799995,97.56 C45.1199987,97.7800011 45.0399995,97.9933323 45.0399995,98.2 C45.0399995,98.4866681 45.1399985,98.7066659 45.3399995,98.86 C45.5400005,99.0133341 45.8049979,99.1249997 46.1349995,99.195 C46.4650012,99.2650004 46.8416641,99.3099999 47.2649995,99.33 C47.688335,99.3500001 48.1183307,99.3716666 48.5549995,99.395 C48.9916684,99.4183335 49.4216641,99.4599997 49.8449995,99.52 C50.268335,99.5800003 50.6449979,99.6849993 50.9749995,99.835 C51.3050012,99.9850007 51.5699985,100.194999 51.7699995,100.465 C51.9700005,100.735001 52.0699995,101.093331 52.0699995,101.54 C52.0699995,101.953335 51.9666672,102.349998 51.7599995,102.73 C51.5533318,103.110002 51.2550015,103.446665 50.8649995,103.74 C50.4749976,104.033335 50.0033356,104.268332 49.4499995,104.445 C48.8966634,104.621668 48.2766696,104.71 47.5899995,104.71 C46.889996,104.71 46.2766688,104.638334 45.7499995,104.495 C45.2233302,104.351666 44.781668,104.158335 44.4249995,103.915 C44.0683311,103.671665 43.8000004,103.390002 43.6199995,103.07 C43.4399986,102.749998 43.3499995,102.410002 43.3499995,102.05 C43.3499995,101.523331 43.5233311,101.070002 43.8699995,100.69 C44.2166679,100.309998 44.6933298,100.016668 45.2999995,99.81 C44.9666645,99.6966661 44.7016672,99.5333344 44.5049995,99.32 C44.3083319,99.1066656 44.2099995,98.8100019 44.2099995,98.43 C44.2099995,98.2899993 44.2366659,98.1433341 44.2899995,97.99 C44.3433331,97.8366659 44.4233323,97.6850008 44.5299995,97.535 C44.6366667,97.3849992 44.7649988,97.243334 44.9149995,97.11 C45.0650003,96.976666 45.2399985,96.8566672 45.4399995,96.75 C44.9666638,96.4766653 44.5983342,96.1133356 44.3349995,95.66 C44.0716649,95.2066644 43.9399995,94.6766697 43.9399995,94.07 C43.9399995,93.5899976 44.0249987,93.1550019 44.1949995,92.765 C44.3650004,92.3749981 44.604998,92.0400014 44.9149995,91.76 C45.2250011,91.4799986 45.5999973,91.2633341 46.0399995,91.11 C46.4800017,90.9566659 46.9666635,90.88 47.4999995,90.88 Z M51.1899995,101.67 C51.1899995,101.356665 51.1083337,101.105001 50.9449995,100.915 C50.7816654,100.724999 50.5633342,100.576667 50.2899995,100.47 C50.0166648,100.363333 49.701668,100.288334 49.3449995,100.245 C48.9883311,100.201666 48.6150015,100.17 48.2249995,100.15 C47.8349976,100.13 47.4433348,100.11 47.0499995,100.09 C46.6566642,100.07 46.2900012,100.03 45.9499995,99.97 C45.6966649,100.07 45.4616673,100.184999 45.2449995,100.315 C45.0283318,100.445001 44.8433336,100.591666 44.6899995,100.755 C44.5366654,100.918334 44.4166666,101.098332 44.3299995,101.295 C44.2433324,101.491668 44.1999995,101.706665 44.1999995,101.94 C44.1999995,102.233335 44.2749988,102.504999 44.4249995,102.755 C44.5750003,103.005001 44.7949981,103.221666 45.0849995,103.405 C45.375001,103.588334 45.7299974,103.733333 46.1499995,103.84 C46.5700016,103.946667 47.0533301,104 47.5999995,104 C48.1066687,104 48.5783307,103.943334 49.0149995,103.83 C49.4516684,103.716666 49.8316646,103.556668 50.1549995,103.35 C50.4783345,103.143332 50.7316653,102.896668 50.9149995,102.61 C51.0983338,102.323332 51.1899995,102.010002 51.1899995,101.67 Z M47.4999995,96.6 C47.9266683,96.6 48.3066645,96.5383339 48.6399995,96.415 C48.9733345,96.2916661 49.2533317,96.1200011 49.4799995,95.9 C49.7066673,95.6799989 49.8783323,95.4166682 49.9949995,95.11 C50.1116668,94.8033318 50.1699995,94.4633352 50.1699995,94.09 C50.1699995,93.7166648 50.1100001,93.3750016 49.9899995,93.065 C49.8699989,92.7549985 49.6950007,92.4900011 49.4649995,92.27 C49.2349984,92.0499989 48.9550012,91.8800006 48.6249995,91.76 C48.2949979,91.6399994 47.9200016,91.58 47.4999995,91.58 C47.0799974,91.58 46.7033345,91.6399994 46.3699995,91.76 C46.0366645,91.8800006 45.7550007,92.0499989 45.5249995,92.27 C45.2949984,92.4900011 45.1200001,92.7549985 44.9999995,93.065 C44.8799989,93.3750016 44.8199995,93.7166648 44.8199995,94.09 C44.8199995,94.4633352 44.8799989,94.8033318 44.9999995,95.11 C45.1200001,95.4166682 45.2949984,95.6799989 45.5249995,95.9 C45.7550007,96.1200011 46.0366645,96.2916661 46.3699995,96.415 C46.7033345,96.5383339 47.0799974,96.6 47.4999995,96.6 Z" id="path-3"></path>
        <path d="M3.61299857,121 L3.61299857,116.383 L4.26549857,116.383 C4.37949914,116.383 4.45899834,116.404 4.50399857,116.446 C4.54899879,116.488 4.57899849,116.559999 4.59399857,116.662 L4.66149857,117.22 C4.82649939,116.934999 5.01999746,116.710001 5.24199857,116.545 C5.46399968,116.379999 5.71299719,116.2975 5.98899857,116.2975 C6.21699971,116.2975 6.40599782,116.349999 6.55599857,116.455 L6.41199857,117.2875 C6.40299852,117.3415 6.38349872,117.37975 6.35349857,117.40225 C6.32349842,117.42475 6.28299882,117.436 6.23199857,117.436 C6.18699834,117.436 6.12549896,117.4255 6.04749857,117.4045 C5.96949818,117.3835 5.86599921,117.373 5.73699857,117.373 C5.50599741,117.373 5.30799939,117.436749 5.14299857,117.56425 C4.97799774,117.691751 4.83849914,117.878499 4.72449857,118.1245 L4.72449857,121 L3.61299857,121 Z M9.94749869,116.311 C10.2385001,116.311 10.5062475,116.3575 10.7507487,116.4505 C10.9952499,116.5435 11.2059978,116.679249 11.3829987,116.85775 C11.5599996,117.036251 11.6979982,117.255249 11.7969987,117.51475 C11.8959992,117.774251 11.9454987,118.070498 11.9454987,118.4035 C11.9454987,118.4875 11.9417487,118.55725 11.9342487,118.61275 C11.9267487,118.66825 11.9132488,118.71175 11.8937487,118.74325 C11.8742486,118.77475 11.8479989,118.79725 11.8149987,118.81075 C11.7819985,118.82425 11.7399989,118.831 11.6889987,118.831 L8.83599869,118.831 C8.86899885,119.305002 8.99649758,119.652999 9.21849869,119.875 C9.4404998,120.097001 9.73449686,120.208 10.1004987,120.208 C10.2804996,120.208 10.435748,120.187 10.5662487,120.145 C10.6967493,120.103 10.8107482,120.0565 10.9082487,120.0055 C11.0057492,119.9545 11.0912483,119.908 11.1647487,119.866 C11.2382491,119.824 11.3094983,119.803 11.3784987,119.803 C11.4234989,119.803 11.4624985,119.812 11.4954987,119.83 C11.5284989,119.848 11.5569986,119.8735 11.5809987,119.9065 L11.9049987,120.3115 C11.7819981,120.455501 11.6439995,120.57625 11.4909987,120.67375 C11.3379979,120.77125 11.1782495,120.84925 11.0117487,120.90775 C10.8452479,120.96625 10.6757496,121.0075 10.5032487,121.0315 C10.3307478,121.0555 10.1634995,121.0675 10.0014987,121.0675 C9.68049708,121.0675 9.38200007,121.014251 9.10599869,120.90775 C8.82999731,120.801249 8.58999971,120.643751 8.38599869,120.43525 C8.18199767,120.226749 8.02149927,119.968752 7.90449869,119.66125 C7.7874981,119.353748 7.72899869,118.997502 7.72899869,118.5925 C7.72899869,118.277498 7.77999818,117.981251 7.88199869,117.70375 C7.9839992,117.426249 8.13024774,117.184751 8.32074869,116.97925 C8.51124964,116.773749 8.74374732,116.611001 9.01824869,116.491 C9.29275006,116.370999 9.60249696,116.311 9.94749869,116.311 Z M9.96999869,117.1075 C9.64599707,117.1075 9.3924996,117.198999 9.20949869,117.382 C9.02649777,117.565001 8.90949894,117.824498 8.85849869,118.1605 L10.9464987,118.1605 C10.9464987,118.016499 10.9269989,117.880751 10.8879987,117.75325 C10.8489985,117.625749 10.7889991,117.514 10.7079987,117.418 C10.6269983,117.322 10.5249993,117.24625 10.4019987,117.19075 C10.2789981,117.13525 10.1349995,117.1075 9.96999869,117.1075 Z M16.3404988,117.283 C16.3104987,117.331 16.278999,117.36475 16.2459988,117.38425 C16.2129986,117.40375 16.1709991,117.4135 16.1199988,117.4135 C16.0659985,117.4135 16.0082491,117.3985 15.9467488,117.3685 C15.8852485,117.3385 15.8139992,117.30475 15.7329988,117.26725 C15.6519984,117.22975 15.5597493,117.196 15.4562488,117.166 C15.3527483,117.136 15.2304995,117.121 15.0894988,117.121 C14.8704977,117.121 14.6979994,117.1675 14.5719988,117.2605 C14.4459982,117.3535 14.3829988,117.474999 14.3829988,117.625 C14.3829988,117.724 14.4152485,117.80725 14.4797488,117.87475 C14.5442491,117.94225 14.6297483,118.0015 14.7362488,118.0525 C14.8427493,118.1035 14.9634981,118.14925 15.0984988,118.18975 C15.2334995,118.23025 15.3714981,118.2745 15.5124988,118.3225 C15.6534995,118.3705 15.7914981,118.42525 15.9264988,118.48675 C16.0614995,118.54825 16.1822483,118.62625 16.2887488,118.72075 C16.3952493,118.81525 16.4807485,118.928499 16.5452488,119.0605 C16.6097491,119.192501 16.6419988,119.351499 16.6419988,119.5375 C16.6419988,119.759501 16.6014992,119.964249 16.5204988,120.15175 C16.4394984,120.339251 16.3209996,120.501249 16.1649988,120.63775 C16.008998,120.774251 15.81625,120.88075 15.5867488,120.95725 C15.3572477,121.03375 15.0940003,121.072 14.7969988,121.072 C14.637998,121.072 14.4827496,121.05775 14.3312488,121.02925 C14.1797481,121.00075 14.0342495,120.961 13.8947488,120.91 C13.7552481,120.859 13.6262494,120.799 13.5077488,120.73 C13.3892482,120.661 13.2849993,120.586 13.1949988,120.505 L13.4514988,120.082 C13.484499,120.031 13.5234986,119.992 13.5684988,119.965 C13.613499,119.938 13.6704985,119.9245 13.7394988,119.9245 C13.8084992,119.9245 13.8737485,119.944 13.9352488,119.983 C13.9967491,120.022 14.0679984,120.064 14.1489988,120.109 C14.2299992,120.154 14.3252483,120.196 14.4347488,120.235 C14.5442494,120.274 14.682998,120.2935 14.8509988,120.2935 C14.9829995,120.2935 15.0962483,120.27775 15.1907488,120.24625 C15.2852493,120.21475 15.3632485,120.1735 15.4247488,120.1225 C15.4862491,120.0715 15.5312487,120.01225 15.5597488,119.94475 C15.588249,119.87725 15.6024988,119.8075 15.6024988,119.7355 C15.6024988,119.627499 15.5702491,119.539 15.5057488,119.47 C15.4412485,119.401 15.3557493,119.341 15.2492488,119.29 C15.1427483,119.239 15.0212495,119.19325 14.8847488,119.15275 C14.7482481,119.11225 14.6087495,119.068 14.4662488,119.02 C14.3237481,118.972 14.1842495,118.91575 14.0477488,118.85125 C13.9112481,118.78675 13.7897493,118.705 13.6832488,118.606 C13.5767483,118.507 13.4912491,118.385501 13.4267488,118.2415 C13.3622485,118.097499 13.3299988,117.923501 13.3299988,117.7195 C13.3299988,117.530499 13.3674984,117.350501 13.4424988,117.1795 C13.5174992,117.008499 13.6277481,116.859251 13.7732488,116.73175 C13.9187495,116.604249 14.1002477,116.50225 14.3177488,116.42575 C14.5352499,116.34925 14.7864974,116.311 15.0714988,116.311 C15.3895004,116.311 15.6789975,116.363499 15.9399988,116.4685 C16.2010001,116.573501 16.4184979,116.711499 16.5924988,116.8825 L16.3404988,117.283 Z M18.2829989,122.5075 L18.2829989,116.383 L18.9624989,116.383 C19.0344993,116.383 19.0959987,116.3995 19.1469989,116.4325 C19.1979992,116.4655 19.2309989,116.5165 19.2459989,116.5855 L19.3359989,117.013 C19.5219999,116.799999 19.7357477,116.627501 19.9772489,116.4955 C20.2187501,116.363499 20.5014973,116.2975 20.8254989,116.2975 C21.0775002,116.2975 21.3077479,116.349999 21.5162489,116.455 C21.72475,116.560001 21.9047482,116.712249 22.0562489,116.91175 C22.2077497,117.111251 22.3247485,117.357249 22.4072489,117.64975 C22.4897493,117.942251 22.5309989,118.277498 22.5309989,118.6555 C22.5309989,119.000502 22.4844994,119.319999 22.3914989,119.614 C22.2984985,119.908001 22.1657498,120.162999 21.9932489,120.379 C21.8207481,120.595001 21.6122501,120.763749 21.3677489,120.88525 C21.1232477,121.006751 20.8495004,121.0675 20.5464989,121.0675 C20.2854976,121.0675 20.0642498,121.02775 19.8827489,120.94825 C19.701248,120.86875 19.5384996,120.758501 19.3944989,120.6175 L19.3944989,122.5075 L18.2829989,122.5075 Z M20.4429989,117.175 C20.2119978,117.175 20.0147497,117.22375 19.8512489,117.32125 C19.6877481,117.41875 19.5354996,117.555999 19.3944989,117.733 L19.3944989,119.803 C19.5204996,119.959001 19.6577482,120.06775 19.8062489,120.12925 C19.9547497,120.19075 20.1144981,120.2215 20.2854989,120.2215 C20.4534998,120.2215 20.6057482,120.19 20.7422489,120.127 C20.8787496,120.064 20.9942485,119.968001 21.0887489,119.839 C21.1832494,119.709999 21.2559987,119.547251 21.3069989,119.35075 C21.3579992,119.154249 21.3834989,118.922501 21.3834989,118.6555 C21.3834989,118.385499 21.3617491,118.156751 21.3182489,117.96925 C21.2747487,117.781749 21.2124993,117.629501 21.1314989,117.5125 C21.0504985,117.395499 20.9522495,117.31 20.8367489,117.256 C20.7212483,117.202 20.5899997,117.175 20.4429989,117.175 Z M26.093499,116.311 C26.4385008,116.311 26.7512476,116.366499 27.031749,116.4775 C27.3122504,116.588501 27.5514981,116.745999 27.749499,116.95 C27.9475,117.154001 28.1004985,117.402999 28.208499,117.697 C28.3164996,117.991001 28.370499,118.319498 28.370499,118.6825 C28.370499,119.048502 28.3164996,119.378499 28.208499,119.6725 C28.1004985,119.966501 27.9475,120.216999 27.749499,120.424 C27.5514981,120.631001 27.3122504,120.789999 27.031749,120.901 C26.7512476,121.012001 26.4385008,121.0675 26.093499,121.0675 C25.7484973,121.0675 25.4350005,121.012001 25.152999,120.901 C24.8709976,120.789999 24.63025,120.631001 24.430749,120.424 C24.231248,120.216999 24.0767496,119.966501 23.967249,119.6725 C23.8577485,119.378499 23.802999,119.048502 23.802999,118.6825 C23.802999,118.319498 23.8577485,117.991001 23.967249,117.697 C24.0767496,117.402999 24.231248,117.154001 24.430749,116.95 C24.63025,116.745999 24.8709976,116.588501 25.152999,116.4775 C25.4350005,116.366499 25.7484973,116.311 26.093499,116.311 Z M26.093499,120.2125 C26.477501,120.2125 26.7617481,120.083501 26.946249,119.8255 C27.13075,119.567499 27.222999,119.189502 27.222999,118.6915 C27.222999,118.193498 27.13075,117.814001 26.946249,117.553 C26.7617481,117.291999 26.477501,117.1615 26.093499,117.1615 C25.7034971,117.1615 25.4155,117.292749 25.229499,117.55525 C25.0434981,117.817751 24.950499,118.196498 24.950499,118.6915 C24.950499,119.186502 25.0434981,119.563749 25.229499,119.82325 C25.4155,120.082751 25.7034971,120.2125 26.093499,120.2125 Z M29.9889992,121 L29.9889992,116.383 L30.6684992,116.383 C30.8124999,116.383 30.9069989,116.450499 30.9519992,116.5855 L31.0284992,116.95 C31.1214996,116.854 31.2197486,116.767 31.3232492,116.689 C31.4267497,116.611 31.5362486,116.5435 31.6517492,116.4865 C31.7672497,116.4295 31.8909985,116.386 32.0229992,116.356 C32.1549998,116.326 32.2989984,116.311 32.4549992,116.311 C32.7070004,116.311 32.9304982,116.35375 33.1254992,116.43925 C33.3205001,116.52475 33.4832485,116.644749 33.6137492,116.79925 C33.7442498,116.953751 33.8432488,117.138249 33.9107492,117.35275 C33.9782495,117.567251 34.0119992,117.803499 34.0119992,118.0615 L34.0119992,121 L32.9004992,121 L32.9004992,118.0615 C32.9004992,117.779499 32.8352498,117.561251 32.7047492,117.40675 C32.5742485,117.252249 32.3785005,117.175 32.1174992,117.175 C31.9254982,117.175 31.7455,117.2185 31.5774992,117.3055 C31.4094983,117.3925 31.2504999,117.510999 31.1004992,117.661 L31.1004992,121 L29.9889992,121 Z M37.0389993,116.383 L37.0389993,121 L35.9274993,121 L35.9274993,116.383 L37.0389993,116.383 Z M37.2054993,115.0375 C37.2054993,115.1335 37.1859995,115.2235 37.1469993,115.3075 C37.1079991,115.3915 37.0562496,115.465 36.9917493,115.528 C36.927249,115.591 36.8514997,115.64125 36.7644993,115.67875 C36.6774988,115.71625 36.5844998,115.735 36.4854993,115.735 C36.3894988,115.735 36.2987497,115.71625 36.2132493,115.67875 C36.1277489,115.64125 36.0534996,115.591 35.9904993,115.528 C35.927499,115.465 35.8772495,115.3915 35.8397493,115.3075 C35.8022491,115.2235 35.7834993,115.1335 35.7834993,115.0375 C35.7834993,114.9385 35.8022491,114.8455 35.8397493,114.7585 C35.8772495,114.6715 35.927499,114.5965 35.9904993,114.5335 C36.0534996,114.4705 36.1277489,114.42025 36.2132493,114.38275 C36.2987497,114.34525 36.3894988,114.3265 36.4854993,114.3265 C36.5844998,114.3265 36.6774988,114.34525 36.7644993,114.38275 C36.8514997,114.42025 36.927249,114.4705 36.9917493,114.5335 C37.0562496,114.5965 37.1079991,114.6715 37.1469993,114.7585 C37.1859995,114.8455 37.2054993,114.9385 37.2054993,115.0375 Z M41.3574994,121 L40.3494994,121 L38.5134994,116.383 L39.4359994,116.383 C39.5169998,116.383 39.5852491,116.4025 39.6407494,116.4415 C39.6962497,116.4805 39.7344993,116.53 39.7554994,116.59 L40.6464994,119.056 C40.6974997,119.200001 40.7402492,119.340999 40.7747494,119.479 C40.8092496,119.617001 40.8399993,119.754999 40.8669994,119.893 C40.8939995,119.754999 40.9247492,119.617001 40.9592494,119.479 C40.9937496,119.340999 41.0379991,119.200001 41.0919994,119.056 L42.0054994,116.59 C42.0264995,116.53 42.0639991,116.4805 42.1179994,116.4415 C42.1719997,116.4025 42.236499,116.383 42.3114994,116.383 L43.1889994,116.383 L41.3574994,121 Z M46.3554995,116.311 C46.646501,116.311 46.9142483,116.3575 47.1587495,116.4505 C47.4032507,116.5435 47.6139986,116.679249 47.7909995,116.85775 C47.9680004,117.036251 48.105999,117.255249 48.2049995,117.51475 C48.304,117.774251 48.3534995,118.070498 48.3534995,118.4035 C48.3534995,118.4875 48.3497496,118.55725 48.3422495,118.61275 C48.3347495,118.66825 48.3212496,118.71175 48.3017495,118.74325 C48.2822494,118.77475 48.2559997,118.79725 48.2229995,118.81075 C48.1899994,118.82425 48.1479998,118.831 48.0969995,118.831 L45.2439995,118.831 C45.2769997,119.305002 45.4044984,119.652999 45.6264995,119.875 C45.8485006,120.097001 46.1424977,120.208 46.5084995,120.208 C46.6885004,120.208 46.8437489,120.187 46.9742495,120.145 C47.1047502,120.103 47.218749,120.0565 47.3162495,120.0055 C47.41375,119.9545 47.4992492,119.908 47.5727495,119.866 C47.6462499,119.824 47.7174992,119.803 47.7864995,119.803 C47.8314997,119.803 47.8704994,119.812 47.9034995,119.83 C47.9364997,119.848 47.9649994,119.8735 47.9889995,119.9065 L48.3129995,120.3115 C48.1899989,120.455501 48.0520003,120.57625 47.8989995,120.67375 C47.7459988,120.77125 47.5862504,120.84925 47.4197495,120.90775 C47.2532487,120.96625 47.0837504,121.0075 46.9112495,121.0315 C46.7387487,121.0555 46.5715003,121.0675 46.4094995,121.0675 C46.0884979,121.0675 45.7900009,121.014251 45.5139995,120.90775 C45.2379981,120.801249 44.9980005,120.643751 44.7939995,120.43525 C44.5899985,120.226749 44.4295001,119.968752 44.3124995,119.66125 C44.1954989,119.353748 44.1369995,118.997502 44.1369995,118.5925 C44.1369995,118.277498 44.187999,117.981251 44.2899995,117.70375 C44.392,117.426249 44.5382486,117.184751 44.7287495,116.97925 C44.9192505,116.773749 45.1517482,116.611001 45.4262495,116.491 C45.7007509,116.370999 46.0104978,116.311 46.3554995,116.311 Z M46.3779995,117.1075 C46.0539979,117.1075 45.8005004,117.198999 45.6174995,117.382 C45.4344986,117.565001 45.3174998,117.824498 45.2664995,118.1605 L47.3544995,118.1605 C47.3544995,118.016499 47.3349997,117.880751 47.2959995,117.75325 C47.2569993,117.625749 47.1969999,117.514 47.1159995,117.418 C47.0349991,117.322 46.9330001,117.24625 46.8099995,117.19075 C46.6869989,117.13525 46.5430003,117.1075 46.3779995,117.1075 Z M53.6784998,116.383 L53.6784998,121 L52.5669998,121 L52.5669998,116.383 L53.6784998,116.383 Z M53.8449998,115.0375 C53.8449998,115.1335 53.8255,115.2235 53.7864998,115.3075 C53.7474996,115.3915 53.6957501,115.465 53.6312498,115.528 C53.5667494,115.591 53.4910002,115.64125 53.4039998,115.67875 C53.3169993,115.71625 53.2240003,115.735 53.1249998,115.735 C53.0289993,115.735 52.9382502,115.71625 52.8527498,115.67875 C52.7672493,115.64125 52.6930001,115.591 52.6299998,115.528 C52.5669994,115.465 52.5167499,115.3915 52.4792498,115.3075 C52.4417496,115.2235 52.4229998,115.1335 52.4229998,115.0375 C52.4229998,114.9385 52.4417496,114.8455 52.4792498,114.7585 C52.5167499,114.6715 52.5669994,114.5965 52.6299998,114.5335 C52.6930001,114.4705 52.7672493,114.42025 52.8527498,114.38275 C52.9382502,114.34525 53.0289993,114.3265 53.1249998,114.3265 C53.2240003,114.3265 53.3169993,114.34525 53.4039998,114.38275 C53.4910002,114.42025 53.5667494,114.4705 53.6312498,114.5335 C53.6957501,114.5965 53.7474996,114.6715 53.7864998,114.7585 C53.8255,114.8455 53.8449998,114.9385 53.8449998,115.0375 Z M55.6839999,121 L55.6839999,116.383 L56.3634999,116.383 C56.5075006,116.383 56.6019997,116.450499 56.6469999,116.5855 L56.7189999,116.9275 C56.8000003,116.8375 56.8847494,116.755 56.9732499,116.68 C57.0617503,116.605 57.1562494,116.5405 57.2567499,116.4865 C57.3572504,116.4325 57.4652493,116.38975 57.5807499,116.35825 C57.6962505,116.32675 57.8229992,116.311 57.9609999,116.311 C58.2520013,116.311 58.4912489,116.389749 58.6787499,116.54725 C58.8662508,116.704751 59.0064994,116.913999 59.0994999,117.175 C59.1715002,117.021999 59.2614993,116.890751 59.3694999,116.78125 C59.4775004,116.671749 59.5959992,116.5825 59.7249999,116.5135 C59.8540005,116.4445 59.9912492,116.3935 60.1367499,116.3605 C60.2822506,116.3275 60.4284991,116.311 60.5754999,116.311 C60.8305012,116.311 61.0569989,116.35 61.2549999,116.428 C61.4530009,116.506 61.6194992,116.619999 61.7544999,116.77 C61.8895006,116.920001 61.9922495,117.102999 62.0627499,117.319 C62.1332502,117.535001 62.1684999,117.782499 62.1684999,118.0615 L62.1684999,121 L61.0569999,121 L61.0569999,118.0615 C61.0569999,117.767499 60.9925005,117.546251 60.8634999,117.39775 C60.7344992,117.249249 60.5455011,117.175 60.2964999,117.175 C60.1824993,117.175 60.0767504,117.1945 59.9792499,117.2335 C59.8817494,117.2725 59.7962502,117.32875 59.7227499,117.40225 C59.6492495,117.47575 59.5915001,117.567999 59.5494999,117.679 C59.5074997,117.790001 59.4864999,117.917499 59.4864999,118.0615 L59.4864999,121 L58.3704999,121 L58.3704999,118.0615 C58.3704999,117.752498 58.3082505,117.527501 58.1837499,117.3865 C58.0592493,117.245499 57.8755011,117.175 57.6324999,117.175 C57.4734991,117.175 57.3242506,117.21475 57.1847499,117.29425 C57.0452492,117.37375 56.9155005,117.482499 56.7954999,117.6205 L56.7954999,121 L55.6839999,121 Z M67.63,121 L67.1305,121 C67.0254995,121 66.9430003,120.98425 66.883,120.95275 C66.8229997,120.92125 66.7780001,120.8575 66.748,120.7615 L66.649,120.433 C66.5319994,120.538001 66.4172506,120.63025 66.30475,120.70975 C66.1922494,120.78925 66.0760006,120.856 65.956,120.91 C65.8359994,120.964 65.7085007,121.0045 65.5735,121.0315 C65.4384993,121.0585 65.2885008,121.072 65.1235,121.072 C64.928499,121.072 64.7485008,121.04575 64.5835,120.99325 C64.4184992,120.94075 64.2767506,120.862001 64.15825,120.757 C64.0397494,120.651999 63.9475003,120.521501 63.8815,120.3655 C63.8154997,120.209499 63.7825,120.028001 63.7825,119.821 C63.7825,119.646999 63.8282495,119.475251 63.91975,119.30575 C64.0112505,119.136249 64.1634989,118.983251 64.3765,118.84675 C64.5895011,118.710249 64.8729982,118.597 65.227,118.507 C65.5810018,118.417 66.0204974,118.366 66.5455,118.354 L66.5455,118.084 C66.5455,117.774998 66.4802507,117.546251 66.34975,117.39775 C66.2192493,117.249249 66.0295012,117.175 65.7805,117.175 C65.6004991,117.175 65.4505006,117.196 65.3305,117.238 C65.2104994,117.28 65.1062504,117.32725 65.01775,117.37975 C64.9292496,117.43225 64.8475004,117.4795 64.7725,117.5215 C64.6974996,117.5635 64.6150004,117.5845 64.525,117.5845 C64.4499996,117.5845 64.3855003,117.565 64.3315,117.526 C64.2774997,117.487 64.2340002,117.439 64.201,117.382 L63.9985,117.0265 C64.5295027,116.540498 65.1699962,116.2975 65.92,116.2975 C66.1900014,116.2975 66.4307489,116.34175 66.64225,116.43025 C66.8537511,116.51875 67.0329993,116.641749 67.18,116.79925 C67.3270007,116.956751 67.4387496,117.144999 67.51525,117.364 C67.5917504,117.583001 67.63,117.822999 67.63,118.084 L67.63,121 Z M65.47,120.307 C65.5840006,120.307 65.6889995,120.2965 65.785,120.2755 C65.8810005,120.2545 65.9717496,120.223 66.05725,120.181 C66.1427504,120.139 66.2252496,120.08725 66.30475,120.02575 C66.3842504,119.96425 66.4644996,119.8915 66.5455,119.8075 L66.5455,119.029 C66.2214984,119.044 65.9507511,119.07175 65.73325,119.11225 C65.5157489,119.15275 65.3410007,119.2045 65.209,119.2675 C65.0769993,119.3305 64.9832503,119.404 64.92775,119.488 C64.8722497,119.572 64.8445,119.6635 64.8445,119.7625 C64.8445,119.957501 64.9022494,120.097 65.01775,120.181 C65.1332506,120.265 65.2839991,120.307 65.47,120.307 Z M71.0710001,116.302 C71.2690011,116.302 71.4549992,116.32225 71.6290001,116.36275 C71.803001,116.40325 71.9619994,116.4625 72.1060001,116.5405 L73.4335001,116.5405 L73.4335001,116.9545 C73.4335001,117.0235 73.4155003,117.0775 73.3795001,117.1165 C73.3434999,117.1555 73.2820006,117.1825 73.1950001,117.1975 L72.7810001,117.274 C72.8110003,117.352 72.83425,117.4345 72.8507501,117.5215 C72.8672502,117.6085 72.8755001,117.7 72.8755001,117.796 C72.8755001,118.024001 72.8297506,118.230249 72.7382501,118.41475 C72.6467497,118.599251 72.5207509,118.755999 72.3602501,118.885 C72.1997493,119.014001 72.0092512,119.11375 71.7887501,119.18425 C71.568249,119.25475 71.3290014,119.29 71.0710001,119.29 C70.8969992,119.29 70.7275009,119.2735 70.5625001,119.2405 C70.4184994,119.3275 70.3465001,119.424999 70.3465001,119.533 C70.3465001,119.626 70.3892497,119.69425 70.4747501,119.73775 C70.5602505,119.78125 70.6727494,119.812 70.8122501,119.83 C70.9517508,119.848 71.1099992,119.85925 71.2870001,119.86375 C71.464001,119.86825 71.6454992,119.878 71.8315001,119.893 C72.017501,119.908 72.1989992,119.93425 72.3760001,119.97175 C72.553001,120.00925 72.7112494,120.0685 72.8507501,120.1495 C72.9902508,120.2305 73.1027497,120.340749 73.1882501,120.48025 C73.2737505,120.619751 73.3165001,120.798999 73.3165001,121.018 C73.3165001,121.222001 73.2662506,121.419999 73.1657501,121.612 C73.0652496,121.804001 72.9197511,121.974999 72.7292501,122.125 C72.5387492,122.275001 72.3055015,122.39575 72.0295001,122.48725 C71.7534987,122.57875 71.4385019,122.6245 71.0845001,122.6245 C70.7334984,122.6245 70.4290014,122.59075 70.1710001,122.52325 C69.9129988,122.45575 69.699251,122.365751 69.5297501,122.25325 C69.3602493,122.140749 69.2335005,122.011001 69.1495001,121.864 C69.0654997,121.716999 69.0235001,121.564001 69.0235001,121.405 C69.0235001,121.188999 69.0894995,121.007501 69.2215001,120.8605 C69.3535008,120.713499 69.5364989,120.5965 69.7705001,120.5095 C69.6564995,120.4465 69.5650005,120.362501 69.4960001,120.2575 C69.4269998,120.152499 69.3925001,120.016001 69.3925001,119.848 C69.3925001,119.779 69.4045,119.70775 69.4285001,119.63425 C69.4525002,119.56075 69.4892499,119.488 69.5387501,119.416 C69.5882504,119.344 69.6504997,119.27575 69.7255001,119.21125 C69.8005005,119.14675 69.8889996,119.089 69.9910001,119.038 C69.7569989,118.911999 69.5732508,118.744001 69.4397501,118.534 C69.3062495,118.323999 69.2395001,118.078001 69.2395001,117.796 C69.2395001,117.567999 69.2852497,117.361751 69.3767501,117.17725 C69.4682506,116.992749 69.5957493,116.835251 69.7592501,116.70475 C69.9227509,116.574249 70.116249,116.4745 70.3397501,116.4055 C70.5632512,116.3365 70.8069988,116.302 71.0710001,116.302 Z M72.2905001,121.207 C72.2905001,121.117 72.2635004,121.0435 72.2095001,120.9865 C72.1554998,120.9295 72.0820006,120.88525 71.9890001,120.85375 C71.8959997,120.82225 71.7872507,120.799 71.6627501,120.784 C71.5382495,120.769 71.4062508,120.75775 71.2667501,120.75025 C71.1272494,120.74275 70.9832509,120.73525 70.8347501,120.72775 C70.6862494,120.72025 70.5430008,120.7075 70.4050001,120.6895 C70.2789995,120.7585 70.1777505,120.84025 70.1012501,120.93475 C70.0247497,121.02925 69.9865001,121.137999 69.9865001,121.261 C69.9865001,121.342 70.0067499,121.41775 70.0472501,121.48825 C70.0877503,121.55875 70.1522497,121.6195 70.2407501,121.6705 C70.3292506,121.7215 70.4439994,121.76125 70.5850001,121.78975 C70.7260008,121.81825 70.8984991,121.8325 71.1025001,121.8325 C71.3095012,121.8325 71.4879994,121.81675 71.6380001,121.78525 C71.7880009,121.75375 71.9117496,121.71025 72.0092501,121.65475 C72.1067506,121.59925 72.1779999,121.53325 72.2230001,121.45675 C72.2680003,121.38025 72.2905001,121.297 72.2905001,121.207 Z M71.0710001,118.579 C71.2090008,118.579 71.3289996,118.56025 71.4310001,118.52275 C71.5330006,118.48525 71.6177498,118.4335 71.6852501,118.3675 C71.7527505,118.3015 71.8037499,118.222 71.8382501,118.129 C71.8727503,118.036 71.8900001,117.934001 71.8900001,117.823 C71.8900001,117.594999 71.8217508,117.414251 71.6852501,117.28075 C71.5487494,117.147249 71.3440015,117.0805 71.0710001,117.0805 C70.7979988,117.0805 70.5932508,117.147249 70.4567501,117.28075 C70.3202494,117.414251 70.2520001,117.594999 70.2520001,117.823 C70.2520001,117.931001 70.2692499,118.0315 70.3037501,118.1245 C70.3382503,118.2175 70.3892498,118.29775 70.4567501,118.36525 C70.5242505,118.43275 70.6097496,118.48525 70.7132501,118.52275 C70.8167506,118.56025 70.9359994,118.579 71.0710001,118.579 Z M76.7890002,116.311 C77.0800017,116.311 77.347749,116.3575 77.5922502,116.4505 C77.8367515,116.5435 78.0474994,116.679249 78.2245002,116.85775 C78.4015011,117.036251 78.5394997,117.255249 78.6385002,117.51475 C78.7375007,117.774251 78.7870002,118.070498 78.7870002,118.4035 C78.7870002,118.4875 78.7832503,118.55725 78.7757502,118.61275 C78.7682502,118.66825 78.7547503,118.71175 78.7352502,118.74325 C78.7157501,118.77475 78.6895004,118.79725 78.6565002,118.81075 C78.6235001,118.82425 78.5815005,118.831 78.5305002,118.831 L75.6775002,118.831 C75.7105004,119.305002 75.8379991,119.652999 76.0600002,119.875 C76.2820013,120.097001 76.5759984,120.208 76.9420002,120.208 C77.1220011,120.208 77.2772496,120.187 77.4077502,120.145 C77.5382509,120.103 77.6522498,120.0565 77.7497502,120.0055 C77.8472507,119.9545 77.9327499,119.908 78.0062502,119.866 C78.0797506,119.824 78.1509999,119.803 78.2200002,119.803 C78.2650005,119.803 78.3040001,119.812 78.3370002,119.83 C78.3700004,119.848 78.3985001,119.8735 78.4225002,119.9065 L78.7465002,120.3115 C78.6234996,120.455501 78.485501,120.57625 78.3325002,120.67375 C78.1794995,120.77125 78.0197511,120.84925 77.8532502,120.90775 C77.6867494,120.96625 77.5172511,121.0075 77.3447502,121.0315 C77.1722494,121.0555 77.005001,121.0675 76.8430002,121.0675 C76.5219986,121.0675 76.2235016,121.014251 75.9475002,120.90775 C75.6714989,120.801249 75.4315013,120.643751 75.2275002,120.43525 C75.0234992,120.226749 74.8630008,119.968752 74.7460002,119.66125 C74.6289997,119.353748 74.5705002,118.997502 74.5705002,118.5925 C74.5705002,118.277498 74.6214997,117.981251 74.7235002,117.70375 C74.8255007,117.426249 74.9717493,117.184751 75.1622502,116.97925 C75.3527512,116.773749 75.5852489,116.611001 75.8597502,116.491 C76.1342516,116.370999 76.4439985,116.311 76.7890002,116.311 Z M76.8115002,117.1075 C76.4874986,117.1075 76.2340012,117.198999 76.0510002,117.382 C75.8679993,117.565001 75.7510005,117.824498 75.7000002,118.1605 L77.7880002,118.1605 C77.7880002,118.016499 77.7685004,117.880751 77.7295002,117.75325 C77.6905,117.625749 77.6305006,117.514 77.5495002,117.418 C77.4684998,117.322 77.3665009,117.24625 77.2435002,117.19075 C77.1204996,117.13525 76.9765011,117.1075 76.8115002,117.1075 Z M86.1730005,117.3595 C86.1400003,117.4015 86.1077506,117.4345 86.0762505,117.4585 C86.0447503,117.4825 85.9990008,117.4945 85.9390005,117.4945 C85.8820002,117.4945 85.8265007,117.47725 85.7725005,117.44275 C85.7185002,117.40825 85.6540009,117.36925 85.5790005,117.32575 C85.5040001,117.28225 85.414751,117.24325 85.3112505,117.20875 C85.20775,117.17425 85.0795012,117.157 84.9265005,117.157 C84.7314995,117.157 84.5605012,117.19225 84.4135005,117.26275 C84.2664997,117.33325 84.144251,117.434499 84.0467505,117.5665 C83.94925,117.698501 83.8765007,117.858249 83.8285005,118.04575 C83.7805002,118.233251 83.7565005,118.445499 83.7565005,118.6825 C83.7565005,118.928501 83.7827502,119.147499 83.8352505,119.3395 C83.8877507,119.531501 83.9635,119.692749 84.0625005,119.82325 C84.161501,119.953751 84.2814998,120.05275 84.4225005,120.12025 C84.5635012,120.18775 84.7224996,120.2215 84.8995005,120.2215 C85.0765014,120.2215 85.2197499,120.19975 85.3292505,120.15625 C85.438751,120.11275 85.5310001,120.06475 85.6060005,120.01225 C85.6810009,119.95975 85.7462502,119.91175 85.8017505,119.86825 C85.8572508,119.82475 85.9195001,119.803 85.9885005,119.803 C86.0785009,119.803 86.1460003,119.8375 86.1910005,119.9065 L86.5105005,120.3115 C86.3874999,120.455501 86.2540012,120.57625 86.1100005,120.67375 C85.9659998,120.77125 85.8167512,120.84925 85.6622505,120.90775 C85.5077497,120.96625 85.3480013,121.0075 85.1830005,121.0315 C85.0179997,121.0555 84.8545013,121.0675 84.6925005,121.0675 C84.4074991,121.0675 84.1390017,121.014251 83.8870005,120.90775 C83.6349992,120.801249 83.4152514,120.646001 83.2277505,120.442 C83.0402495,120.237999 82.891751,119.988251 82.7822505,119.69275 C82.6727499,119.397249 82.6180005,119.060502 82.6180005,118.6825 C82.6180005,118.343498 82.66675,118.029251 82.7642505,117.73975 C82.861751,117.450249 83.0049995,117.199751 83.1940005,116.98825 C83.3830014,116.776749 83.6169991,116.611001 83.8960005,116.491 C84.1750019,116.370999 84.4959987,116.311 84.8590005,116.311 C85.2040022,116.311 85.5062492,116.366499 85.7657505,116.4775 C86.0252518,116.588501 86.2584994,116.747499 86.4655005,116.9545 L86.1730005,117.3595 Z M87.9715006,121 L87.9715006,116.383 L88.6240006,116.383 C88.7380012,116.383 88.8175004,116.404 88.8625006,116.446 C88.9075008,116.488 88.9375005,116.559999 88.9525006,116.662 L89.0200006,117.22 C89.1850014,116.934999 89.3784995,116.710001 89.6005006,116.545 C89.8225017,116.379999 90.0714992,116.2975 90.3475006,116.2975 C90.5755017,116.2975 90.7644998,116.349999 90.9145006,116.455 L90.7705006,117.2875 C90.7615006,117.3415 90.7420007,117.37975 90.7120006,117.40225 C90.6820004,117.42475 90.6415009,117.436 90.5905006,117.436 C90.5455004,117.436 90.484001,117.4255 90.4060006,117.4045 C90.3280002,117.3835 90.2245012,117.373 90.0955006,117.373 C89.8644994,117.373 89.6665014,117.436749 89.5015006,117.56425 C89.3364998,117.691751 89.1970012,117.878499 89.0830006,118.1245 L89.0830006,121 L87.9715006,121 Z M94.3060007,116.311 C94.5970022,116.311 94.8647495,116.3575 95.1092507,116.4505 C95.3537519,116.5435 95.5644998,116.679249 95.7415007,116.85775 C95.9185016,117.036251 96.0565002,117.255249 96.1555007,117.51475 C96.2545012,117.774251 96.3040007,118.070498 96.3040007,118.4035 C96.3040007,118.4875 96.3002508,118.55725 96.2927507,118.61275 C96.2852507,118.66825 96.2717508,118.71175 96.2522507,118.74325 C96.2327506,118.77475 96.2065009,118.79725 96.1735007,118.81075 C96.1405006,118.82425 96.098501,118.831 96.0475007,118.831 L93.1945007,118.831 C93.2275009,119.305002 93.3549996,119.652999 93.5770007,119.875 C93.7990018,120.097001 94.0929989,120.208 94.4590007,120.208 C94.6390016,120.208 94.7942501,120.187 94.9247507,120.145 C95.0552514,120.103 95.1692502,120.0565 95.2667507,120.0055 C95.3642512,119.9545 95.4497503,119.908 95.5232507,119.866 C95.5967511,119.824 95.6680004,119.803 95.7370007,119.803 C95.7820009,119.803 95.8210006,119.812 95.8540007,119.83 C95.8870009,119.848 95.9155006,119.8735 95.9395007,119.9065 L96.2635007,120.3115 C96.1405001,120.455501 96.0025015,120.57625 95.8495007,120.67375 C95.6965,120.77125 95.5367515,120.84925 95.3702507,120.90775 C95.2037499,120.96625 95.0342516,121.0075 94.8617507,121.0315 C94.6892499,121.0555 94.5220015,121.0675 94.3600007,121.0675 C94.0389991,121.0675 93.7405021,121.014251 93.4645007,120.90775 C93.1884993,120.801249 92.9485017,120.643751 92.7445007,120.43525 C92.5404997,120.226749 92.3800013,119.968752 92.2630007,119.66125 C92.1460001,119.353748 92.0875007,118.997502 92.0875007,118.5925 C92.0875007,118.277498 92.1385002,117.981251 92.2405007,117.70375 C92.3425012,117.426249 92.4887498,117.184751 92.6792507,116.97925 C92.8697517,116.773749 93.1022493,116.611001 93.3767507,116.491 C93.6512521,116.370999 93.960999,116.311 94.3060007,116.311 Z M94.3285007,117.1075 C94.0044991,117.1075 93.7510016,117.198999 93.5680007,117.382 C93.3849998,117.565001 93.268001,117.824498 93.2170007,118.1605 L95.3050007,118.1605 C95.3050007,118.016499 95.2855009,117.880751 95.2465007,117.75325 C95.2075005,117.625749 95.1475011,117.514 95.0665007,117.418 C94.9855003,117.322 94.8835013,117.24625 94.7605007,117.19075 C94.6375001,117.13525 94.4935015,117.1075 94.3285007,117.1075 Z M101.576501,121 L101.077001,121 C100.972,121 100.889501,120.98425 100.829501,120.95275 C100.769501,120.92125 100.724501,120.8575 100.694501,120.7615 L100.595501,120.433 C100.4785,120.538001 100.363751,120.63025 100.251251,120.70975 C100.13875,120.78925 100.022501,120.856 99.9025008,120.91 C99.7825002,120.964 99.6550015,121.0045 99.5200008,121.0315 C99.3850002,121.0585 99.2350017,121.072 99.0700008,121.072 C98.8749999,121.072 98.6950017,121.04575 98.5300008,120.99325 C98.365,120.94075 98.2232514,120.862001 98.1047508,120.757 C97.9862502,120.651999 97.8940012,120.521501 97.8280008,120.3655 C97.7620005,120.209499 97.7290008,120.028001 97.7290008,119.821 C97.7290008,119.646999 97.7747504,119.475251 97.8662508,119.30575 C97.9577513,119.136249 98.1099998,118.983251 98.3230008,118.84675 C98.5360019,118.710249 98.8194991,118.597 99.1735008,118.507 C99.5275026,118.417 99.9669982,118.366 100.492001,118.354 L100.492001,118.084 C100.492001,117.774998 100.426751,117.546251 100.296251,117.39775 C100.16575,117.249249 99.9760021,117.175 99.7270008,117.175 C99.5469999,117.175 99.3970014,117.196 99.2770008,117.238 C99.1570002,117.28 99.0527513,117.32725 98.9642508,117.37975 C98.8757504,117.43225 98.7940012,117.4795 98.7190008,117.5215 C98.6440005,117.5635 98.5615013,117.5845 98.4715008,117.5845 C98.3965005,117.5845 98.3320011,117.565 98.2780008,117.526 C98.2240006,117.487 98.180501,117.439 98.1475008,117.382 L97.9450008,117.0265 C98.4760035,116.540498 99.1164971,116.2975 99.8665008,116.2975 C100.136502,116.2975 100.37725,116.34175 100.588751,116.43025 C100.800252,116.51875 100.9795,116.641749 101.126501,116.79925 C101.273502,116.956751 101.38525,117.144999 101.461751,117.364 C101.538251,117.583001 101.576501,117.822999 101.576501,118.084 L101.576501,121 Z M99.4165008,120.307 C99.5305014,120.307 99.6355004,120.2965 99.7315008,120.2755 C99.8275013,120.2545 99.9182504,120.223 100.003751,120.181 C100.089251,120.139 100.17175,120.08725 100.251251,120.02575 C100.330751,119.96425 100.411,119.8915 100.492001,119.8075 L100.492001,119.029 C100.167999,119.044 99.8972519,119.07175 99.6797508,119.11225 C99.4622497,119.15275 99.2875015,119.2045 99.1555008,119.2675 C99.0235002,119.3305 98.9297511,119.404 98.8742508,119.488 C98.8187506,119.572 98.7910008,119.6635 98.7910008,119.7625 C98.7910008,119.957501 98.8487503,120.097 98.9642508,120.181 C99.0797514,120.265 99.2304999,120.307 99.4165008,120.307 Z M104.936501,121.072 C104.537499,121.072 104.230002,120.958751 104.014001,120.73225 C103.798,120.505749 103.690001,120.193002 103.690001,119.794 L103.690001,117.2155 L103.222001,117.2155 C103.162001,117.2155 103.110251,117.196 103.066751,117.157 C103.023251,117.118 103.001501,117.0595 103.001501,116.9815 L103.001501,116.5405 L103.744001,116.419 L103.978001,115.159 C103.990001,115.099 104.017751,115.0525 104.061251,115.0195 C104.104751,114.9865 104.159501,114.97 104.225501,114.97 L104.801501,114.97 L104.801501,116.4235 L106.016501,116.4235 L106.016501,117.2155 L104.801501,117.2155 L104.801501,119.7175 C104.801501,119.861501 104.837501,119.974 104.909501,120.055 C104.981501,120.136 105.0775,120.1765 105.197501,120.1765 C105.266501,120.1765 105.324251,120.16825 105.370751,120.15175 C105.417251,120.13525 105.457751,120.118 105.492251,120.1 C105.526751,120.082 105.557501,120.06475 105.584501,120.04825 C105.611501,120.03175 105.638501,120.0235 105.665501,120.0235 C105.698501,120.0235 105.725501,120.03175 105.746501,120.04825 C105.767501,120.06475 105.790001,120.0895 105.814001,120.1225 L106.147001,120.6625 C105.985,120.797501 105.799002,120.8995 105.589001,120.9685 C105.379,121.0375 105.161502,121.072 104.936501,121.072 Z M108.836501,116.383 L108.836501,121 L107.725001,121 L107.725001,116.383 L108.836501,116.383 Z M109.003001,115.0375 C109.003001,115.1335 108.983501,115.2235 108.944501,115.3075 C108.905501,115.3915 108.853751,115.465 108.789251,115.528 C108.724751,115.591 108.649002,115.64125 108.562001,115.67875 C108.475001,115.71625 108.382002,115.735 108.283001,115.735 C108.187001,115.735 108.096252,115.71625 108.010751,115.67875 C107.925251,115.64125 107.851001,115.591 107.788001,115.528 C107.725001,115.465 107.674751,115.3915 107.637251,115.3075 C107.599751,115.2235 107.581001,115.1335 107.581001,115.0375 C107.581001,114.9385 107.599751,114.8455 107.637251,114.7585 C107.674751,114.6715 107.725001,114.5965 107.788001,114.5335 C107.851001,114.4705 107.925251,114.42025 108.010751,114.38275 C108.096252,114.34525 108.187001,114.3265 108.283001,114.3265 C108.382002,114.3265 108.475001,114.34525 108.562001,114.38275 C108.649002,114.42025 108.724751,114.4705 108.789251,114.5335 C108.853751,114.5965 108.905501,114.6715 108.944501,114.7585 C108.983501,114.8455 109.003001,114.9385 109.003001,115.0375 Z M112.813001,116.311 C113.158003,116.311 113.47075,116.366499 113.751251,116.4775 C114.031753,116.588501 114.271,116.745999 114.469001,116.95 C114.667002,117.154001 114.820001,117.402999 114.928001,117.697 C115.036002,117.991001 115.090001,118.319498 115.090001,118.6825 C115.090001,119.048502 115.036002,119.378499 114.928001,119.6725 C114.820001,119.966501 114.667002,120.216999 114.469001,120.424 C114.271,120.631001 114.031753,120.789999 113.751251,120.901 C113.47075,121.012001 113.158003,121.0675 112.813001,121.0675 C112.467999,121.0675 112.154503,121.012001 111.872501,120.901 C111.5905,120.789999 111.349752,120.631001 111.150251,120.424 C110.95075,120.216999 110.796252,119.966501 110.686751,119.6725 C110.577251,119.378499 110.522501,119.048502 110.522501,118.6825 C110.522501,118.319498 110.577251,117.991001 110.686751,117.697 C110.796252,117.402999 110.95075,117.154001 111.150251,116.95 C111.349752,116.745999 111.5905,116.588501 111.872501,116.4775 C112.154503,116.366499 112.467999,116.311 112.813001,116.311 Z M112.813001,120.2125 C113.197003,120.2125 113.48125,120.083501 113.665751,119.8255 C113.850252,119.567499 113.942501,119.189502 113.942501,118.6915 C113.942501,118.193498 113.850252,117.814001 113.665751,117.553 C113.48125,117.291999 113.197003,117.1615 112.813001,117.1615 C112.422999,117.1615 112.135002,117.292749 111.949001,117.55525 C111.763,117.817751 111.670001,118.196498 111.670001,118.6915 C111.670001,119.186502 111.763,119.563749 111.949001,119.82325 C112.135002,120.082751 112.422999,120.2125 112.813001,120.2125 Z M116.708501,121 L116.708501,116.383 L117.388001,116.383 C117.532002,116.383 117.626501,116.450499 117.671501,116.5855 L117.748001,116.95 C117.841002,116.854 117.939251,116.767 118.042751,116.689 C118.146252,116.611 118.255751,116.5435 118.371251,116.4865 C118.486752,116.4295 118.610501,116.386 118.742501,116.356 C118.874502,116.326 119.018501,116.311 119.174501,116.311 C119.426503,116.311 119.65,116.35375 119.845001,116.43925 C120.040002,116.52475 120.202751,116.644749 120.333251,116.79925 C120.463752,116.953751 120.562751,117.138249 120.630251,117.35275 C120.697752,117.567251 120.731501,117.803499 120.731501,118.0615 L120.731501,121 L119.620001,121 L119.620001,118.0615 C119.620001,117.779499 119.554752,117.561251 119.424251,117.40675 C119.293751,117.252249 119.098003,117.175 118.837001,117.175 C118.645,117.175 118.465002,117.2185 118.297001,117.3055 C118.129,117.3925 117.970002,117.510999 117.820001,117.661 L117.820001,121 L116.708501,121 Z" id="path-4"></path>
    </defs>
    <g id="logo" stroke="none" stroke-width="1" fill="none" fill-rule="evenodd">
        <g id="if_image_2428676" fill-rule="nonzero">
            <path d="M121.034747,0.33728 L2.96525333,0.33728 C1.32762667,0.33728 0,1.66490667 0,3.30253333 L0,56.2034133 C0,57.84104 1.32762667,59.1686667 2.96525333,59.1686667 C4.60288,59.1686667 5.93050667,57.84104 5.93050667,56.2034133 L5.93050667,6.26778667 L118.07032,6.26778667 L118.07032,101.7916 L81.2076,63.80544 C80.0907733,62.6555467 78.0687467,62.6555467 76.9527467,63.80544 L61.6966133,79.5278133 L34.8770667,51.8898667 C33.76024,50.7399733 31.7382133,50.7399733 30.6222133,51.8898667 L0.83824,82.5823467 C0.792773333,82.6294667 0.760533333,82.6840267 0.7192,82.7328 C0.639013333,82.82704 0.557173333,82.9196267 0.489386667,83.02296 C0.43896,83.09984 0.40176,83.18168 0.3596,83.2618667 C0.311653333,83.3519733 0.2604,83.4387733 0.221546667,83.53384 C0.18352,83.6272533 0.1612,83.7231467 0.133093333,83.8182133 C0.10664,83.9074933 0.0752266667,83.9942933 0.0578666667,84.0877067 C0.0355466667,84.20592 0.02976,84.3257867 0.0214933333,84.4456533 C0.0165333333,84.51344 0.00165333333,84.5770933 0.00165333333,84.6457067 L0.00165333333,109.101813 C0.00165333333,110.73944 1.32928,112.067067 2.96690667,112.067067 L96.1314133,112.067067 C97.76904,112.067067 99.0966667,110.73944 99.0966667,109.101813 C99.0966667,107.464187 97.76904,106.13656 96.1314133,106.13656 L5.92968,106.13656 L5.92968,85.8493333 L32.7492267,58.2122133 L65.1603467,91.6112 C65.7414933,92.2097067 66.5144267,92.51144 67.2881867,92.51144 C68.03136,92.51144 68.77784,92.2328533 69.3532,91.6740267 C70.5278933,90.5340533 70.5568267,88.6566933 69.4160267,87.4811733 L65.8274667,83.7834933 L79.07976,70.12696 L118.907733,111.16848 C119.477307,111.755413 120.248587,112.06872 121.0364,112.06872 C121.41088,112.06872 121.78784,111.997627 122.149093,111.851307 C123.267573,111.397467 124,110.311227 124,109.103467 L124,3.30253333 C124,1.66490667 122.672373,0.33728 121.034747,0.33728 Z" id="Shape" fill="url(#linearGradient-1)"></path>
            <path d="M91.1904267,47.8797067 C98.81808,47.8797067 105.023867,41.67392 105.023867,34.04544 C105.023867,26.41696 98.81808,20.212 91.1904267,20.212 C83.5627733,20.212 77.3569867,26.4177867 77.3569867,34.04544 C77.3569867,41.6730933 83.5627733,47.8797067 91.1904267,47.8797067 Z M91.1904267,26.14168 C95.5486133,26.14168 99.0941867,29.6872533 99.0941867,34.04544 C99.0941867,38.4036267 95.5486133,41.9492 91.1904267,41.9492 C86.83224,41.9492 83.2866667,38.4036267 83.2866667,34.04544 C83.2866667,29.6872533 86.83224,26.14168 91.1904267,26.14168 Z" id="Shape" fill="url(#linearGradient-2)"></path>
        </g>
        <g id="rimg">
            <use fill-opacity="0" fill="#E45D5D" xlink:href="#path-3"></use>
            <use fill="url(#linearGradient-1)" xlink:href="#path-3"></use>
        </g>
        <g id="responive-image-crea">
            <use fill-opacity="0" fill="#E45D5D" xlink:href="#path-4"></use>
            <use fill="url(#linearGradient-1)" xlink:href="#path-4"></use>
        </g>
    </g>
</svg>