<?xml version="1.0" encoding="UTF-8"?>
<svg width="124px" height="124px" viewBox="0 0 124 124" version="1.1" xmlns="http://www.w3.org/2000/svg" xmlns:xlink="http://www.w3.org/1999/xlink">
    <!-- Generator: Sketch 50.2 (55047) - http://www.bohemiancoding.com/sketch -->
    <title>logo</title>
    <desc>Created with Sketch.</desc>
    <defs>
        <linearGradient x1="96.9728%" y1="102.130898%" x2="4.1528%" y2="-0.881184383%" id="linearGradient-1">
            <stop stop-color="#007FE2" offset="0%"></stop>
            <stop stop-color="#39D3B8" offset="100%"></stop>
        </linearGradient>
        <linearGradient x1="247.818214%" y1="247.809914%" x2="-168.191108%" y2="-168.186979%" id="linearGradient-2">
            <stop stop-color="#007FE2" offset="0%"></stop>
            <stop stop-color="#39D3B8" offset="100%"></stop>
        </linearGradient>
        <path d="M10.62,101 L10.62,91.05 L11.12,91.05 C11.2333339,91.05 11.3149997,91.0733331 11.365,91.12 C11.4150002,91.1666669 11.4433333,91.2466661 11.45,91.36 L11.53,93.46 C11.8500016,92.6533293 12.276664,92.021669 12.81,91.565 C13.343336,91.1083311 13.9999961,90.88 14.78,90.88 C15.0800015,90.88 15.3566654,90.9116663 15.61,90.975 C15.8633346,91.0383336 16.1033322,91.1299994 16.33,91.25 L16.2,91.91 C16.1799999,92.0166672 16.1133339,92.07 16,92.07 C15.9599998,92.07 15.9033337,92.0566668 15.83,92.03 C15.7566663,92.0033332 15.6650005,91.9733335 15.555,91.94 C15.4449994,91.9066665 15.3100008,91.8766668 15.15,91.85 C14.9899992,91.8233332 14.8066677,91.81 14.6,91.81 C13.8466629,91.81 13.2283357,92.043331 12.745,92.51 C12.2616642,92.976669 11.8700015,93.6499956 11.57,94.53 L11.57,101 L10.62,101 Z M21.4566665,91.05 L21.4566665,101 L20.5066665,101 L20.5066665,91.05 L21.4566665,91.05 Z M21.8766665,87.62 C21.8766665,87.7400006 21.8516668,87.8516661 21.8016665,87.955 C21.7516663,88.0583338 21.6866669,88.1499996 21.6066665,88.23 C21.5266661,88.3100004 21.4333337,88.3733331 21.3266665,88.42 C21.2199993,88.4666669 21.1066671,88.49 20.9866665,88.49 C20.8666659,88.49 20.7533337,88.4666669 20.6466665,88.42 C20.5399993,88.3733331 20.4466669,88.3100004 20.3666665,88.23 C20.2866661,88.1499996 20.2233334,88.0583338 20.1766665,87.955 C20.1299996,87.8516661 20.1066665,87.7400006 20.1066665,87.62 C20.1066665,87.4999994 20.1299996,87.3850006 20.1766665,87.275 C20.2233334,87.1649994 20.2866661,87.0700004 20.3666665,86.99 C20.4466669,86.9099996 20.5399993,86.8466669 20.6466665,86.8 C20.7533337,86.7533331 20.8666659,86.73 20.9866665,86.73 C21.1066671,86.73 21.2199993,86.7533331 21.3266665,86.8 C21.4333337,86.8466669 21.5266661,86.9099996 21.6066665,86.99 C21.6866669,87.0700004 21.7516663,87.1649994 21.8016665,87.275 C21.8516668,87.3850006 21.8766665,87.4999994 21.8766665,87.62 Z M26.643333,101 L26.643333,91.05 L27.163333,91.05 C27.3366672,91.05 27.4366662,91.1333325 27.463333,91.3 L27.553333,92.74 C27.7466673,92.4666653 27.9533319,92.2166678 28.173333,91.99 C28.3933341,91.7633322 28.6283318,91.5683341 28.878333,91.405 C29.1283343,91.2416659 29.3949983,91.1150004 29.678333,91.025 C29.9616678,90.9349996 30.2599981,90.89 30.573333,90.89 C31.3000033,90.89 31.8799975,91.1016645 32.313333,91.525 C32.7466685,91.9483355 33.0399989,92.5366629 33.193333,93.29 C33.3133336,92.8766646 33.4816653,92.5200015 33.698333,92.22 C33.9150008,91.9199985 34.1633316,91.6716677 34.443333,91.475 C34.7233344,91.2783323 35.0283314,91.1316671 35.358333,91.035 C35.6883347,90.9383328 36.0266646,90.89 36.373333,90.89 C36.8666688,90.89 37.3099977,90.9716658 37.703333,91.135 C38.0966683,91.2983342 38.431665,91.5399984 38.708333,91.86 C38.9850011,92.1800016 39.1966656,92.573331 39.343333,93.04 C39.4900004,93.506669 39.563333,94.039997 39.563333,94.64 L39.563333,101 L38.603333,101 L38.603333,94.64 C38.603333,93.6666618 38.3933351,92.9250026 37.973333,92.415 C37.5533309,91.9049974 36.9533369,91.65 36.173333,91.65 C35.8266646,91.65 35.4950013,91.7133327 35.178333,91.84 C34.8616648,91.9666673 34.5816676,92.1549988 34.338333,92.405 C34.0949985,92.6550012 33.9016671,92.9666648 33.758333,93.34 C33.614999,93.7133352 33.543333,94.1466642 33.543333,94.64 L33.543333,101 L32.593333,101 L32.593333,94.64 C32.593333,93.6733285 32.4000016,92.9333359 32.013333,92.42 C31.6266644,91.9066641 31.0633367,91.65 30.323333,91.65 C29.7833303,91.65 29.2833353,91.8116651 28.823333,92.135 C28.3633307,92.4583349 27.9533348,92.9066638 27.593333,93.48 L27.593333,101 L26.643333,101 Z M47.4999995,90.88 C47.933335,90.88 48.3349977,90.9333328 48.7049995,91.04 C49.0750014,91.1466672 49.4066647,91.2966657 49.6999995,91.49 L52.2499995,91.49 L52.2499995,91.82 C52.2499995,91.9866675 52.1566671,92.0766666 51.9699995,92.09 L50.4599995,92.2 C50.6466671,92.4533346 50.789999,92.7383318 50.8899995,93.055 C50.99,93.3716682 51.0399995,93.7099982 51.0399995,94.07 C51.0399995,94.5500024 50.9533337,94.9849981 50.7799995,95.375 C50.6066653,95.7650019 50.3650011,96.098332 50.0549995,96.375 C49.744998,96.651668 49.373335,96.8666659 48.9399995,97.02 C48.506664,97.1733341 48.0266688,97.25 47.4999995,97.25 C46.9266633,97.25 46.4066685,97.1633342 45.9399995,96.99 C45.6599981,97.1500008 45.4400003,97.3399989 45.2799995,97.56 C45.1199987,97.7800011 45.0399995,97.9933323 45.0399995,98.2 C45.0399995,98.4866681 45.1399985,98.7066659 45.3399995,98.86 C45.5400005,99.0133341 45.8049979,99.1249997 46.1349995,99.195 C46.4650012,99.2650004 46.8416641,99.3099999 47.2649995,99.33 C47.688335,99.3500001 48.1183307,99.3716666 48.5549995,99.395 C48.9916684,99.4183335 49.4216641,99.4599997 49.8449995,99.52 C50.268335,99.5800003 50.6449979,99.6849993 50.9749995,99.835 C51.3050012,99.9850007 51.5699985,100.194999 51.7699995,100.465 C51.9700005,100.735001 52.0699995,101.093331 52.0699995,101.54 C52.0699995,101.953335 51.9666672,102.349998 51.7599995,102.73 C51.5533318,103.110002 51.2550015,103.446665 50.8649995,103.74 C50.4749976,104.033335 50.0033356,104.268332 49.4499995,104.445 C48.8966634,104.621668 48.2766696,104.71 47.5899995,104.71 C46.889996,104.71 46.2766688,104.638334 45.7499995,104.495 C45.2233302,104.351666 44.781668,104.158335 44.4249995,103.915 C44.0683311,103.671665 43.8000004,103.390002 43.6199995,103.07 C43.4399986,102.749998 43.3499995,102.410002 43.3499995,102.05 C43.3499995,101.523331 43.5233311,101.070002 43.8699995,100.69 C44.2166679,100.309998 44.6933298,100.016668 45.2999995,99.81 C44.9666645,99.6966661 44.7016672,99.5333344 44.5049995,99.32 C44.3083319,99.1066656 44.2099995,98.8100019 44.2099995,98.43 C44.2099995,98.2899993 44.2366659,98.1433341 44.2899995,97.99 C44.3433331,97.8366659 44.4233323,97.6850008 44.5299995,97.535 C44.6366667,97.3849992 44.7649988,97.243334 44.9149995,97.11 C45.0650003,96.976666 45.2399985,96.8566672 45.4399995,96.75 C44.9666638,96.4766653 44.5983342,96.1133356 44.3349995,95.66 C44.0716649,95.2066644 43.9399995,94.6766697 43.9399995,94.07 C43.9399995,93.5899976 44.0249987,93.1550019 44.1949995,92.765 C44.3650004,92.3749981 44.604998,92.0400014 44.9149995,91.76 C45.2250011,91.4799986 45.5999973,91.2633341 46.0399995,91.11 C46.4800017,90.9566659 46.9666635,90.88 47.4999995,90.88 Z M51.1899995,101.67 C51.1899995,101.356665 51.1083337,101.105001 50.9449995,100.915 C50.7816654,100.724999 50.5633342,100.576667 50.2899995,100.47 C50.0166648,100.363333 49.701668,100.288334 49.3449995,100.245 C48.9883311,100.201666 48.6150015,100.17 48.2249995,100.15 C47.8349976,100.13 47.4433348,100.11 47.0499995,100.09 C46.6566642,100.07 46.2900012,100.03 45.9499995,99.97 C45.6966649,100.07 45.4616673,100.184999 45.2449995,100.315 C45.0283318,100.445001 44.8433336,100.591666 44.6899995,100.755 C44.5366654,100.918334 44.4166666,101.098332 44.3299995,101.295 C44.2433324,101.491668 44.1999995,101.706665 44.1999995,101.94 C44.1999995,102.233335 44.2749988,102.504999 44.4249995,102.755 C44.5750003,103.005001 44.7949981,103.221666 45.0849995,103.405 C45.375001,103.588334 45.7299974,103.733333 46.1499995,103.84 C46.5700016,103.946667 47.0533301,104 47.5999995,104 C48.1066687,104 48.5783307,103.943334 49.0149995,103.83 C49.4516684,103.716666 49.8316646,103.556668 50.1549995,103.35 C50.4783345,103.143332 50.7316653,102.896668 50.9149995,102.61 C51.0983338,102.323332 51.1899995,102.010002 51.1899995,101.67 Z M47.4999995,96.6 C47.9266683,96.6 48.3066645,96.5383339 48.6399995,96.415 C48.9733345,96.2916661 49.2533317,96.1200011 49.4799995,95.9 C49.7066673,95.6799989 49.8783323,95.4166682 49.9949995,95.11 C50.1116668,94.8033318 50.1699995,94.4633352 50.1699995,94.09 C50.1699995,93.7166648 50.1100001,93.3750016 49.9899995,93.065 C49.8699989,92.7549985 49.6950007,92.4900011 49.4649995,92.27 C49.2349984,92.0499989 48.9550012,91.8800006 48.6249995,91.76 C48.2949979,91.6399994 47.9200016,91.58 47.4999995,91.58 C47.0799974,91.58 46.7033345,91.6399994 46.3699995,91.76 C46.0366645,91.8800006 45.7550007,92.0499989 45.5249995,92.27 C45.2949984,92.4900011 45.1200001,92.7549985 44.9999995,93.065 C44.8799989,93.3750016 44.8199995,93.7166648 44.8199995,94.09 C44.8199995,94.4633352 44.8799989,94.8033318 44.9999995,95.11 C45.1200001,95.4166682 45.2949984,95.6799989 45.5249995,95.9 C45.7550007,96.1200011 46.0366645,96.2916661 46.3699995,96.415 C46.7033345,96.5383339 47.0799974,96.6 47.4999995,96.6 Z" id="path-3"></path>
        <path d="M0.594,121 L0.594,116.383 L1.2465,116.383 C1.36050057,116.383 1.43999978,116.404 1.485,116.446 C1.53000023,116.488 1.55999993,116.559999 1.575,116.662 L1.6425,117.22 C1.80750083,116.934999 2.00099889,116.710001 2.223,116.545 C2.44500111,116.379999 2.69399862,116.2975 2.97,116.2975 C3.19800114,116.2975 3.38699925,116.349999 3.537,116.455 L3.393,117.2875 C3.38399996,117.3415 3.36450015,117.37975 3.3345,117.40225 C3.30449985,117.42475 3.26400026,117.436 3.213,117.436 C3.16799978,117.436 3.10650039,117.4255 3.0285,117.4045 C2.95049961,117.3835 2.84700065,117.373 2.718,117.373 C2.48699885,117.373 2.28900082,117.436749 2.124,117.56425 C1.95899918,117.691751 1.81950057,117.878499 1.7055,118.1245 L1.7055,121 L0.594,121 Z M6.9285001,116.311 C7.21950155,116.311 7.48724888,116.3575 7.7317501,116.4505 C7.97625132,116.5435 8.18699921,116.679249 8.3640001,116.85775 C8.54100098,117.036251 8.6789996,117.255249 8.7780001,117.51475 C8.8770006,117.774251 8.9265001,118.070498 8.9265001,118.4035 C8.9265001,118.4875 8.92275014,118.55725 8.9152501,118.61275 C8.90775006,118.66825 8.8942502,118.71175 8.8747501,118.74325 C8.85525,118.77475 8.82900026,118.79725 8.7960001,118.81075 C8.76299993,118.82425 8.72100035,118.831 8.6700001,118.831 L5.8170001,118.831 C5.85000026,119.305002 5.97749899,119.652999 6.1995001,119.875 C6.42150121,120.097001 6.71549827,120.208 7.0815001,120.208 C7.261501,120.208 7.41674945,120.187 7.5472501,120.145 C7.67775075,120.103 7.79174961,120.0565 7.8892501,120.0055 C7.98675059,119.9545 8.07224973,119.908 8.1457501,119.866 C8.21925047,119.824 8.29049975,119.803 8.3595001,119.803 C8.40450032,119.803 8.44349993,119.812 8.4765001,119.83 C8.50950026,119.848 8.53799998,119.8735 8.5620001,119.9065 L8.8860001,120.3115 C8.76299948,120.455501 8.62500086,120.57625 8.4720001,120.67375 C8.31899933,120.77125 8.15925093,120.84925 7.9927501,120.90775 C7.82624927,120.96625 7.65675096,121.0075 7.4842501,121.0315 C7.31174924,121.0555 7.14450091,121.0675 6.9825001,121.0675 C6.66149849,121.0675 6.36300148,121.014251 6.0870001,120.90775 C5.81099872,120.801249 5.57100112,120.643751 5.3670001,120.43525 C5.16299908,120.226749 5.00250068,119.968752 4.8855001,119.66125 C4.76849951,119.353748 4.7100001,118.997502 4.7100001,118.5925 C4.7100001,118.277498 4.76099959,117.981251 4.8630001,117.70375 C4.96500061,117.426249 5.11124915,117.184751 5.3017501,116.97925 C5.49225105,116.773749 5.72474873,116.611001 5.9992501,116.491 C6.27375147,116.370999 6.58349838,116.311 6.9285001,116.311 Z M6.9510001,117.1075 C6.62699848,117.1075 6.37350102,117.198999 6.1905001,117.382 C6.00749918,117.565001 5.89050035,117.824498 5.8395001,118.1605 L7.9275001,118.1605 C7.9275001,118.016499 7.90800029,117.880751 7.8690001,117.75325 C7.82999991,117.625749 7.7700005,117.514 7.6890001,117.418 C7.60799969,117.322 7.50600071,117.24625 7.3830001,117.19075 C7.25999948,117.13525 7.11600092,117.1075 6.9510001,117.1075 Z M13.3215002,117.283 C13.2915,117.331 13.2600004,117.36475 13.2270002,117.38425 C13.194,117.40375 13.1520005,117.4135 13.1010002,117.4135 C13.0469999,117.4135 12.9892505,117.3985 12.9277502,117.3685 C12.8662499,117.3385 12.7950006,117.30475 12.7140002,117.26725 C12.6329998,117.22975 12.5407507,117.196 12.4372502,117.166 C12.3337497,117.136 12.2115009,117.121 12.0705002,117.121 C11.8514991,117.121 11.6790008,117.1675 11.5530002,117.2605 C11.4269996,117.3535 11.3640002,117.474999 11.3640002,117.625 C11.3640002,117.724 11.3962499,117.80725 11.4607502,117.87475 C11.5252505,117.94225 11.6107497,118.0015 11.7172502,118.0525 C11.8237507,118.1035 11.9444995,118.14925 12.0795002,118.18975 C12.2145009,118.23025 12.3524995,118.2745 12.4935002,118.3225 C12.6345009,118.3705 12.7724995,118.42525 12.9075002,118.48675 C13.0425009,118.54825 13.1632497,118.62625 13.2697502,118.72075 C13.3762507,118.81525 13.4617499,118.928499 13.5262502,119.0605 C13.5907505,119.192501 13.6230002,119.351499 13.6230002,119.5375 C13.6230002,119.759501 13.5825006,119.964249 13.5015002,120.15175 C13.4204998,120.339251 13.302001,120.501249 13.1460002,120.63775 C12.9899994,120.774251 12.7972513,120.88075 12.5677502,120.95725 C12.3382491,121.03375 12.0750017,121.072 11.7780002,121.072 C11.6189994,121.072 11.463751,121.05775 11.3122502,121.02925 C11.1607494,121.00075 11.0152509,120.961 10.8757502,120.91 C10.7362495,120.859 10.6072508,120.799 10.4887502,120.73 C10.3702496,120.661 10.2660006,120.586 10.1760002,120.505 L10.4325002,120.082 C10.4655004,120.031 10.5045,119.992 10.5495002,119.965 C10.5945004,119.938 10.6514999,119.9245 10.7205002,119.9245 C10.7895005,119.9245 10.8547499,119.944 10.9162502,119.983 C10.9777505,120.022 11.0489998,120.064 11.1300002,120.109 C11.2110006,120.154 11.3062497,120.196 11.4157502,120.235 C11.5252507,120.274 11.6639994,120.2935 11.8320002,120.2935 C11.9640009,120.2935 12.0772497,120.27775 12.1717502,120.24625 C12.2662507,120.21475 12.3442499,120.1735 12.4057502,120.1225 C12.4672505,120.0715 12.5122501,120.01225 12.5407502,119.94475 C12.5692503,119.87725 12.5835002,119.8075 12.5835002,119.7355 C12.5835002,119.627499 12.5512505,119.539 12.4867502,119.47 C12.4222499,119.401 12.3367507,119.341 12.2302502,119.29 C12.1237497,119.239 12.0022509,119.19325 11.8657502,119.15275 C11.7292495,119.11225 11.5897509,119.068 11.4472502,119.02 C11.3047495,118.972 11.1652509,118.91575 11.0287502,118.85125 C10.8922495,118.78675 10.7707507,118.705 10.6642502,118.606 C10.5577497,118.507 10.4722505,118.385501 10.4077502,118.2415 C10.3432499,118.097499 10.3110002,117.923501 10.3110002,117.7195 C10.3110002,117.530499 10.3484998,117.350501 10.4235002,117.1795 C10.4985006,117.008499 10.6087495,116.859251 10.7542502,116.73175 C10.8997509,116.604249 11.0812491,116.50225 11.2987502,116.42575 C11.5162513,116.34925 11.7674988,116.311 12.0525002,116.311 C12.3705018,116.311 12.6599989,116.363499 12.9210002,116.4685 C13.1820015,116.573501 13.3994993,116.711499 13.5735002,116.8825 L13.3215002,117.283 Z M15.2640003,122.5075 L15.2640003,116.383 L15.9435003,116.383 C16.0155007,116.383 16.077,116.3995 16.1280003,116.4325 C16.1790006,116.4655 16.2120002,116.5165 16.2270003,116.5855 L16.3170003,117.013 C16.5030012,116.799999 16.7167491,116.627501 16.9582503,116.4955 C17.1997515,116.363499 17.4824987,116.2975 17.8065003,116.2975 C18.0585016,116.2975 18.2887493,116.349999 18.4972503,116.455 C18.7057513,116.560001 18.8857495,116.712249 19.0372503,116.91175 C19.1887511,117.111251 19.3057499,117.357249 19.3882503,117.64975 C19.4707507,117.942251 19.5120003,118.277498 19.5120003,118.6555 C19.5120003,119.000502 19.4655008,119.319999 19.3725003,119.614 C19.2794998,119.908001 19.1467512,120.162999 18.9742503,120.379 C18.8017494,120.595001 18.5932515,120.763749 18.3487503,120.88525 C18.1042491,121.006751 17.8305018,121.0675 17.5275003,121.0675 C17.266499,121.0675 17.0452512,121.02775 16.8637503,120.94825 C16.6822494,120.86875 16.519501,120.758501 16.3755003,120.6175 L16.3755003,122.5075 L15.2640003,122.5075 Z M17.4240003,117.175 C17.1929991,117.175 16.9957511,117.22375 16.8322503,117.32125 C16.6687495,117.41875 16.516501,117.555999 16.3755003,117.733 L16.3755003,119.803 C16.5015009,119.959001 16.6387496,120.06775 16.7872503,120.12925 C16.935751,120.19075 17.0954994,120.2215 17.2665003,120.2215 C17.4345011,120.2215 17.5867496,120.19 17.7232503,120.127 C17.859751,120.064 17.9752498,119.968001 18.0697503,119.839 C18.1642508,119.709999 18.237,119.547251 18.2880003,119.35075 C18.3390006,119.154249 18.3645003,118.922501 18.3645003,118.6555 C18.3645003,118.385499 18.3427505,118.156751 18.2992503,117.96925 C18.2557501,117.781749 18.1935007,117.629501 18.1125003,117.5125 C18.0314999,117.395499 17.9332509,117.31 17.8177503,117.256 C17.7022497,117.202 17.571001,117.175 17.4240003,117.175 Z M23.0745004,116.311 C23.4195021,116.311 23.732249,116.366499 24.0127504,116.4775 C24.2932518,116.588501 24.5324994,116.745999 24.7305004,116.95 C24.9285014,117.154001 25.0814999,117.402999 25.1895004,117.697 C25.2975009,117.991001 25.3515004,118.319498 25.3515004,118.6825 C25.3515004,119.048502 25.2975009,119.378499 25.1895004,119.6725 C25.0814999,119.966501 24.9285014,120.216999 24.7305004,120.424 C24.5324994,120.631001 24.2932518,120.789999 24.0127504,120.901 C23.732249,121.012001 23.4195021,121.0675 23.0745004,121.0675 C22.7294987,121.0675 22.4160018,121.012001 22.1340004,120.901 C21.851999,120.789999 21.6112514,120.631001 21.4117504,120.424 C21.2122494,120.216999 21.0577509,119.966501 20.9482504,119.6725 C20.8387499,119.378499 20.7840004,119.048502 20.7840004,118.6825 C20.7840004,118.319498 20.8387499,117.991001 20.9482504,117.697 C21.0577509,117.402999 21.2122494,117.154001 21.4117504,116.95 C21.6112514,116.745999 21.851999,116.588501 22.1340004,116.4775 C22.4160018,116.366499 22.7294987,116.311 23.0745004,116.311 Z M23.0745004,120.2125 C23.4585023,120.2125 23.7427495,120.083501 23.9272504,119.8255 C24.1117513,119.567499 24.2040004,119.189502 24.2040004,118.6915 C24.2040004,118.193498 24.1117513,117.814001 23.9272504,117.553 C23.7427495,117.291999 23.4585023,117.1615 23.0745004,117.1615 C22.6844985,117.1615 22.3965013,117.292749 22.2105004,117.55525 C22.0244995,117.817751 21.9315004,118.196498 21.9315004,118.6915 C21.9315004,119.186502 22.0244995,119.563749 22.2105004,119.82325 C22.3965013,120.082751 22.6844985,120.2125 23.0745004,120.2125 Z M26.9700005,121 L26.9700005,116.383 L27.6495005,116.383 C27.7935012,116.383 27.8880003,116.450499 27.9330005,116.5855 L28.0095005,116.95 C28.102501,116.854 28.20075,116.767 28.3042505,116.689 C28.407751,116.611 28.5172499,116.5435 28.6327505,116.4865 C28.7482511,116.4295 28.8719998,116.386 29.0040005,116.356 C29.1360012,116.326 29.2799997,116.311 29.4360005,116.311 C29.6880018,116.311 29.9114995,116.35375 30.1065005,116.43925 C30.3015015,116.52475 30.4642498,116.644749 30.5947505,116.79925 C30.7252512,116.953751 30.8242502,117.138249 30.8917505,117.35275 C30.9592508,117.567251 30.9930005,117.803499 30.9930005,118.0615 L30.9930005,121 L29.8815005,121 L29.8815005,118.0615 C29.8815005,117.779499 29.8162512,117.561251 29.6857505,117.40675 C29.5552498,117.252249 29.3595018,117.175 29.0985005,117.175 C28.9064995,117.175 28.7265013,117.2185 28.5585005,117.3055 C28.3904997,117.3925 28.2315013,117.510999 28.0815005,117.661 L28.0815005,121 L26.9700005,121 Z M35.5770006,117.283 C35.5470005,117.331 35.5155008,117.36475 35.4825006,117.38425 C35.4495004,117.40375 35.4075009,117.4135 35.3565006,117.4135 C35.3025003,117.4135 35.2447509,117.3985 35.1832506,117.3685 C35.1217503,117.3385 35.050501,117.30475 34.9695006,117.26725 C34.8885002,117.22975 34.7962511,117.196 34.6927506,117.166 C34.5892501,117.136 34.4670013,117.121 34.3260006,117.121 C34.1069995,117.121 33.9345012,117.1675 33.8085006,117.2605 C33.6825,117.3535 33.6195006,117.474999 33.6195006,117.625 C33.6195006,117.724 33.6517503,117.80725 33.7162506,117.87475 C33.7807509,117.94225 33.8662501,118.0015 33.9727506,118.0525 C34.0792511,118.1035 34.1999999,118.14925 34.3350006,118.18975 C34.4700013,118.23025 34.6079999,118.2745 34.7490006,118.3225 C34.8900013,118.3705 35.0279999,118.42525 35.1630006,118.48675 C35.2980013,118.54825 35.4187501,118.62625 35.5252506,118.72075 C35.6317511,118.81525 35.7172503,118.928499 35.7817506,119.0605 C35.8462509,119.192501 35.8785006,119.351499 35.8785006,119.5375 C35.8785006,119.759501 35.838001,119.964249 35.7570006,120.15175 C35.6760002,120.339251 35.5575014,120.501249 35.4015006,120.63775 C35.2454998,120.774251 35.0527517,120.88075 34.8232506,120.95725 C34.5937495,121.03375 34.3305021,121.072 34.0335006,121.072 C33.8744998,121.072 33.7192514,121.05775 33.5677506,121.02925 C33.4162498,121.00075 33.2707513,120.961 33.1312506,120.91 C32.9917499,120.859 32.8627512,120.799 32.7442506,120.73 C32.62575,120.661 32.5215011,120.586 32.4315006,120.505 L32.6880006,120.082 C32.7210008,120.031 32.7600004,119.992 32.8050006,119.965 C32.8500008,119.938 32.9070003,119.9245 32.9760006,119.9245 C33.0450009,119.9245 33.1102503,119.944 33.1717506,119.983 C33.2332509,120.022 33.3045002,120.064 33.3855006,120.109 C33.466501,120.154 33.5617501,120.196 33.6712506,120.235 C33.7807511,120.274 33.9194998,120.2935 34.0875006,120.2935 C34.2195013,120.2935 34.3327501,120.27775 34.4272506,120.24625 C34.5217511,120.21475 34.5997503,120.1735 34.6612506,120.1225 C34.7227509,120.0715 34.7677505,120.01225 34.7962506,119.94475 C34.8247507,119.87725 34.8390006,119.8075 34.8390006,119.7355 C34.8390006,119.627499 34.8067509,119.539 34.7422506,119.47 C34.6777503,119.401 34.5922511,119.341 34.4857506,119.29 C34.3792501,119.239 34.2577513,119.19325 34.1212506,119.15275 C33.9847499,119.11225 33.8452513,119.068 33.7027506,119.02 C33.5602499,118.972 33.4207513,118.91575 33.2842506,118.85125 C33.1477499,118.78675 33.0262511,118.705 32.9197506,118.606 C32.8132501,118.507 32.7277509,118.385501 32.6632506,118.2415 C32.5987503,118.097499 32.5665006,117.923501 32.5665006,117.7195 C32.5665006,117.530499 32.6040002,117.350501 32.6790006,117.1795 C32.754001,117.008499 32.8642499,116.859251 33.0097506,116.73175 C33.1552513,116.604249 33.3367495,116.50225 33.5542506,116.42575 C33.7717517,116.34925 34.0229992,116.311 34.3080006,116.311 C34.6260022,116.311 34.9154993,116.363499 35.1765006,116.4685 C35.4375019,116.573501 35.6549997,116.711499 35.8290006,116.8825 L35.5770006,117.283 Z M38.7030007,116.383 L38.7030007,121 L37.5915007,121 L37.5915007,116.383 L38.7030007,116.383 Z M38.8695007,115.0375 C38.8695007,115.1335 38.8500009,115.2235 38.8110007,115.3075 C38.7720005,115.3915 38.720251,115.465 38.6557507,115.528 C38.5912504,115.591 38.5155011,115.64125 38.4285007,115.67875 C38.3415003,115.71625 38.2485012,115.735 38.1495007,115.735 C38.0535002,115.735 37.9627511,115.71625 37.8772507,115.67875 C37.7917503,115.64125 37.717501,115.591 37.6545007,115.528 C37.5915004,115.465 37.5412509,115.3915 37.5037507,115.3075 C37.4662505,115.2235 37.4475007,115.1335 37.4475007,115.0375 C37.4475007,114.9385 37.4662505,114.8455 37.5037507,114.7585 C37.5412509,114.6715 37.5915004,114.5965 37.6545007,114.5335 C37.717501,114.4705 37.7917503,114.42025 37.8772507,114.38275 C37.9627511,114.34525 38.0535002,114.3265 38.1495007,114.3265 C38.2485012,114.3265 38.3415003,114.34525 38.4285007,114.38275 C38.5155011,114.42025 38.5912504,114.4705 38.6557507,114.5335 C38.720251,114.5965 38.7720005,114.6715 38.8110007,114.7585 C38.8500009,114.8455 38.8695007,114.9385 38.8695007,115.0375 Z M43.0215008,121 L42.0135008,121 L40.1775008,116.383 L41.1000008,116.383 C41.1810012,116.383 41.2492505,116.4025 41.3047508,116.4415 C41.3602511,116.4805 41.3985007,116.53 41.4195008,116.59 L42.3105008,119.056 C42.3615011,119.200001 42.4042506,119.340999 42.4387508,119.479 C42.473251,119.617001 42.5040007,119.754999 42.5310008,119.893 C42.5580009,119.754999 42.5887506,119.617001 42.6232508,119.479 C42.657751,119.340999 42.7020005,119.200001 42.7560008,119.056 L43.6695008,116.59 C43.6905009,116.53 43.7280005,116.4805 43.7820008,116.4415 C43.8360011,116.4025 43.9005004,116.383 43.9755008,116.383 L44.8530008,116.383 L43.0215008,121 Z M48.0195009,116.311 C48.3105024,116.311 48.5782497,116.3575 48.8227509,116.4505 C49.0672521,116.5435 49.278,116.679249 49.4550009,116.85775 C49.6320018,117.036251 49.7700004,117.255249 49.8690009,117.51475 C49.9680014,117.774251 50.0175009,118.070498 50.0175009,118.4035 C50.0175009,118.4875 50.0137509,118.55725 50.0062509,118.61275 C49.9987509,118.66825 49.985251,118.71175 49.9657509,118.74325 C49.9462508,118.77475 49.9200011,118.79725 49.8870009,118.81075 C49.8540007,118.82425 49.8120012,118.831 49.7610009,118.831 L46.9080009,118.831 C46.9410011,119.305002 47.0684998,119.652999 47.2905009,119.875 C47.512502,120.097001 47.8064991,120.208 48.1725009,120.208 C48.3525018,120.208 48.5077502,120.187 48.6382509,120.145 C48.7687516,120.103 48.8827504,120.0565 48.9802509,120.0055 C49.0777514,119.9545 49.1632505,119.908 49.2367509,119.866 C49.3102513,119.824 49.3815006,119.803 49.4505009,119.803 C49.4955011,119.803 49.5345007,119.812 49.5675009,119.83 C49.6005011,119.848 49.6290008,119.8735 49.6530009,119.9065 L49.9770009,120.3115 C49.8540003,120.455501 49.7160017,120.57625 49.5630009,120.67375 C49.4100001,120.77125 49.2502517,120.84925 49.0837509,120.90775 C48.9172501,120.96625 48.7477518,121.0075 48.5752509,121.0315 C48.40275,121.0555 48.2355017,121.0675 48.0735009,121.0675 C47.7524993,121.0675 47.4540023,121.014251 47.1780009,120.90775 C46.9019995,120.801249 46.6620019,120.643751 46.4580009,120.43525 C46.2539999,120.226749 46.0935015,119.968752 45.9765009,119.66125 C45.8595003,119.353748 45.8010009,118.997502 45.8010009,118.5925 C45.8010009,118.277498 45.8520004,117.981251 45.9540009,117.70375 C46.0560014,117.426249 46.2022499,117.184751 46.3927509,116.97925 C46.5832519,116.773749 46.8157495,116.611001 47.0902509,116.491 C47.3647523,116.370999 47.6744992,116.311 48.0195009,116.311 Z M48.0420009,117.1075 C47.7179993,117.1075 47.4645018,117.198999 47.2815009,117.382 C47.0985,117.565001 46.9815012,117.824498 46.9305009,118.1605 L49.0185009,118.1605 C49.0185009,118.016499 48.9990011,117.880751 48.9600009,117.75325 C48.9210007,117.625749 48.8610013,117.514 48.7800009,117.418 C48.6990005,117.322 48.5970015,117.24625 48.4740009,117.19075 C48.3510003,117.13525 48.2070017,117.1075 48.0420009,117.1075 Z M55.3425011,116.383 L55.3425011,121 L54.2310011,121 L54.2310011,116.383 L55.3425011,116.383 Z M55.5090011,115.0375 C55.5090011,115.1335 55.4895013,115.2235 55.4505011,115.3075 C55.4115009,115.3915 55.3597514,115.465 55.2952511,115.528 C55.2307508,115.591 55.1550015,115.64125 55.0680011,115.67875 C54.9810007,115.71625 54.8880016,115.735 54.7890011,115.735 C54.6930006,115.735 54.6022515,115.71625 54.5167511,115.67875 C54.4312507,115.64125 54.3570014,115.591 54.2940011,115.528 C54.2310008,115.465 54.1807513,115.3915 54.1432511,115.3075 C54.1057509,115.2235 54.0870011,115.1335 54.0870011,115.0375 C54.0870011,114.9385 54.1057509,114.8455 54.1432511,114.7585 C54.1807513,114.6715 54.2310008,114.5965 54.2940011,114.5335 C54.3570014,114.4705 54.4312507,114.42025 54.5167511,114.38275 C54.6022515,114.34525 54.6930006,114.3265 54.7890011,114.3265 C54.8880016,114.3265 54.9810007,114.34525 55.0680011,114.38275 C55.1550015,114.42025 55.2307508,114.4705 55.2952511,114.5335 C55.3597514,114.5965 55.4115009,114.6715 55.4505011,114.7585 C55.4895013,114.8455 55.5090011,114.9385 55.5090011,115.0375 Z M57.3480012,121 L57.3480012,116.383 L58.0275012,116.383 C58.1715019,116.383 58.266001,116.450499 58.3110012,116.5855 L58.3830012,116.9275 C58.4640016,116.8375 58.5487508,116.755 58.6372512,116.68 C58.7257516,116.605 58.8202507,116.5405 58.9207512,116.4865 C59.0212517,116.4325 59.1292506,116.38975 59.2447512,116.35825 C59.3602518,116.32675 59.4870005,116.311 59.6250012,116.311 C59.9160027,116.311 60.1552503,116.389749 60.3427512,116.54725 C60.5302521,116.704751 60.6705007,116.913999 60.7635012,117.175 C60.8355016,117.021999 60.9255007,116.890751 61.0335012,116.78125 C61.1415017,116.671749 61.2600006,116.5825 61.3890012,116.5135 C61.5180018,116.4445 61.6552505,116.3935 61.8007512,116.3605 C61.9462519,116.3275 62.0925005,116.311 62.2395012,116.311 C62.4945025,116.311 62.7210002,116.35 62.9190012,116.428 C63.1170022,116.506 63.2835005,116.619999 63.4185012,116.77 C63.5535019,116.920001 63.6562508,117.102999 63.7267512,117.319 C63.7972516,117.535001 63.8325012,117.782499 63.8325012,118.0615 L63.8325012,121 L62.7210012,121 L62.7210012,118.0615 C62.7210012,117.767499 62.6565018,117.546251 62.5275012,117.39775 C62.3985006,117.249249 62.2095024,117.175 61.9605012,117.175 C61.8465006,117.175 61.7407517,117.1945 61.6432512,117.2335 C61.5457507,117.2725 61.4602516,117.32875 61.3867512,117.40225 C61.3132508,117.47575 61.2555014,117.567999 61.2135012,117.679 C61.171501,117.790001 61.1505012,117.917499 61.1505012,118.0615 L61.1505012,121 L60.0345012,121 L60.0345012,118.0615 C60.0345012,117.752498 59.9722518,117.527501 59.8477512,117.3865 C59.7232506,117.245499 59.5395024,117.175 59.2965012,117.175 C59.1375004,117.175 58.9882519,117.21475 58.8487512,117.29425 C58.7092505,117.37375 58.5795018,117.482499 58.4595012,117.6205 L58.4595012,121 L57.3480012,121 Z M69.2940013,121 L68.7945013,121 C68.6895008,121 68.6070016,120.98425 68.5470013,120.95275 C68.487001,120.92125 68.4420015,120.8575 68.4120013,120.7615 L68.3130013,120.433 C68.1960007,120.538001 68.0812519,120.63025 67.9687513,120.70975 C67.8562507,120.78925 67.7400019,120.856 67.6200013,120.91 C67.5000007,120.964 67.372502,121.0045 67.2375013,121.0315 C67.1025006,121.0585 66.9525021,121.072 66.7875013,121.072 C66.5925003,121.072 66.4125021,121.04575 66.2475013,120.99325 C66.0825005,120.94075 65.9407519,120.862001 65.8222513,120.757 C65.7037507,120.651999 65.6115016,120.521501 65.5455013,120.3655 C65.479501,120.209499 65.4465013,120.028001 65.4465013,119.821 C65.4465013,119.646999 65.4922508,119.475251 65.5837513,119.30575 C65.6752518,119.136249 65.8275002,118.983251 66.0405013,118.84675 C66.2535024,118.710249 66.5369995,118.597 66.8910013,118.507 C67.2450031,118.417 67.6844987,118.366 68.2095013,118.354 L68.2095013,118.084 C68.2095013,117.774998 68.144252,117.546251 68.0137513,117.39775 C67.8832506,117.249249 67.6935025,117.175 67.4445013,117.175 C67.2645004,117.175 67.1145019,117.196 66.9945013,117.238 C66.8745007,117.28 66.7702517,117.32725 66.6817513,117.37975 C66.5932509,117.43225 66.5115017,117.4795 66.4365013,117.5215 C66.3615009,117.5635 66.2790018,117.5845 66.1890013,117.5845 C66.1140009,117.5845 66.0495016,117.565 65.9955013,117.526 C65.941501,117.487 65.8980015,117.439 65.8650013,117.382 L65.6625013,117.0265 C66.193504,116.540498 66.8339976,116.2975 67.5840013,116.2975 C67.8540027,116.2975 68.0947502,116.34175 68.3062513,116.43025 C68.5177524,116.51875 68.6970006,116.641749 68.8440013,116.79925 C68.991002,116.956751 69.1027509,117.144999 69.1792513,117.364 C69.2557517,117.583001 69.2940013,117.822999 69.2940013,118.084 L69.2940013,121 Z M67.1340013,120.307 C67.2480019,120.307 67.3530008,120.2965 67.4490013,120.2755 C67.5450018,120.2545 67.6357509,120.223 67.7212513,120.181 C67.8067517,120.139 67.8892509,120.08725 67.9687513,120.02575 C68.0482517,119.96425 68.1285009,119.8915 68.2095013,119.8075 L68.2095013,119.029 C67.8854997,119.044 67.6147524,119.07175 67.3972513,119.11225 C67.1797502,119.15275 67.005002,119.2045 66.8730013,119.2675 C66.7410006,119.3305 66.6472516,119.404 66.5917513,119.488 C66.536251,119.572 66.5085013,119.6635 66.5085013,119.7625 C66.5085013,119.957501 66.5662507,120.097 66.6817513,120.181 C66.7972519,120.265 66.9480004,120.307 67.1340013,120.307 Z M72.7350014,116.302 C72.9330024,116.302 73.1190005,116.32225 73.2930014,116.36275 C73.4670023,116.40325 73.6260007,116.4625 73.7700014,116.5405 L75.0975014,116.5405 L75.0975014,116.9545 C75.0975014,117.0235 75.0795016,117.0775 75.0435014,117.1165 C75.0075012,117.1555 74.9460018,117.1825 74.8590014,117.1975 L74.4450014,117.274 C74.4750016,117.352 74.4982513,117.4345 74.5147514,117.5215 C74.5312515,117.6085 74.5395014,117.7 74.5395014,117.796 C74.5395014,118.024001 74.4937519,118.230249 74.4022514,118.41475 C74.3107509,118.599251 74.1847522,118.755999 74.0242514,118.885 C73.8637506,119.014001 73.6732525,119.11375 73.4527514,119.18425 C73.2322503,119.25475 72.9930027,119.29 72.7350014,119.29 C72.5610005,119.29 72.3915022,119.2735 72.2265014,119.2405 C72.0825007,119.3275 72.0105014,119.424999 72.0105014,119.533 C72.0105014,119.626 72.053251,119.69425 72.1387514,119.73775 C72.2242518,119.78125 72.3367507,119.812 72.4762514,119.83 C72.6157521,119.848 72.7740005,119.85925 72.9510014,119.86375 C73.1280023,119.86825 73.3095005,119.878 73.4955014,119.893 C73.6815023,119.908 73.8630005,119.93425 74.0400014,119.97175 C74.2170023,120.00925 74.3752507,120.0685 74.5147514,120.1495 C74.6542521,120.2305 74.766751,120.340749 74.8522514,120.48025 C74.9377518,120.619751 74.9805014,120.798999 74.9805014,121.018 C74.9805014,121.222001 74.9302519,121.419999 74.8297514,121.612 C74.7292509,121.804001 74.5837524,121.974999 74.3932514,122.125 C74.2027504,122.275001 73.9695028,122.39575 73.6935014,122.48725 C73.4175,122.57875 73.1025032,122.6245 72.7485014,122.6245 C72.3974996,122.6245 72.0930027,122.59075 71.8350014,122.52325 C71.5770001,122.45575 71.3632522,122.365751 71.1937514,122.25325 C71.0242506,122.140749 70.8975018,122.011001 70.8135014,121.864 C70.729501,121.716999 70.6875014,121.564001 70.6875014,121.405 C70.6875014,121.188999 70.7535007,121.007501 70.8855014,120.8605 C71.0175021,120.713499 71.2005002,120.5965 71.4345014,120.5095 C71.3205008,120.4465 71.2290017,120.362501 71.1600014,120.2575 C71.0910011,120.152499 71.0565014,120.016001 71.0565014,119.848 C71.0565014,119.779 71.0685013,119.70775 71.0925014,119.63425 C71.1165015,119.56075 71.1532512,119.488 71.2027514,119.416 C71.2522516,119.344 71.314501,119.27575 71.3895014,119.21125 C71.4645018,119.14675 71.5530009,119.089 71.6550014,119.038 C71.4210002,118.911999 71.2372521,118.744001 71.1037514,118.534 C70.9702507,118.323999 70.9035014,118.078001 70.9035014,117.796 C70.9035014,117.567999 70.9492509,117.361751 71.0407514,117.17725 C71.1322519,116.992749 71.2597506,116.835251 71.4232514,116.70475 C71.5867522,116.574249 71.7802503,116.4745 72.0037514,116.4055 C72.2272525,116.3365 72.4710001,116.302 72.7350014,116.302 Z M73.9545014,121.207 C73.9545014,121.117 73.9275017,121.0435 73.8735014,120.9865 C73.8195011,120.9295 73.7460019,120.88525 73.6530014,120.85375 C73.5600009,120.82225 73.451252,120.799 73.3267514,120.784 C73.2022508,120.769 73.0702521,120.75775 72.9307514,120.75025 C72.7912507,120.74275 72.6472521,120.73525 72.4987514,120.72775 C72.3502507,120.72025 72.2070021,120.7075 72.0690014,120.6895 C71.9430008,120.7585 71.8417518,120.84025 71.7652514,120.93475 C71.688751,121.02925 71.6505014,121.137999 71.6505014,121.261 C71.6505014,121.342 71.6707512,121.41775 71.7112514,121.48825 C71.7517516,121.55875 71.816251,121.6195 71.9047514,121.6705 C71.9932518,121.7215 72.1080007,121.76125 72.2490014,121.78975 C72.3900021,121.81825 72.5625004,121.8325 72.7665014,121.8325 C72.9735024,121.8325 73.1520007,121.81675 73.3020014,121.78525 C73.4520022,121.75375 73.5757509,121.71025 73.6732514,121.65475 C73.7707519,121.59925 73.8420012,121.53325 73.8870014,121.45675 C73.9320016,121.38025 73.9545014,121.297 73.9545014,121.207 Z M72.7350014,118.579 C72.8730021,118.579 72.9930009,118.56025 73.0950014,118.52275 C73.1970019,118.48525 73.2817511,118.4335 73.3492514,118.3675 C73.4167517,118.3015 73.4677512,118.222 73.5022514,118.129 C73.5367516,118.036 73.5540014,117.934001 73.5540014,117.823 C73.5540014,117.594999 73.4857521,117.414251 73.3492514,117.28075 C73.2127507,117.147249 73.0080028,117.0805 72.7350014,117.0805 C72.462,117.0805 72.2572521,117.147249 72.1207514,117.28075 C71.9842507,117.414251 71.9160014,117.594999 71.9160014,117.823 C71.9160014,117.931001 71.9332512,118.0315 71.9677514,118.1245 C72.0022516,118.2175 72.0532511,118.29775 72.1207514,118.36525 C72.1882517,118.43275 72.2737509,118.48525 72.3772514,118.52275 C72.4807519,118.56025 72.6000007,118.579 72.7350014,118.579 Z M78.4530015,116.311 C78.744003,116.311 79.0117503,116.3575 79.2562515,116.4505 C79.5007527,116.5435 79.7115006,116.679249 79.8885015,116.85775 C80.0655024,117.036251 80.203501,117.255249 80.3025015,117.51475 C80.401502,117.774251 80.4510015,118.070498 80.4510015,118.4035 C80.4510015,118.4875 80.4472515,118.55725 80.4397515,118.61275 C80.4322515,118.66825 80.4187516,118.71175 80.3992515,118.74325 C80.3797514,118.77475 80.3535017,118.79725 80.3205015,118.81075 C80.2875013,118.82425 80.2455018,118.831 80.1945015,118.831 L77.3415015,118.831 C77.3745017,119.305002 77.5020004,119.652999 77.7240015,119.875 C77.9460026,120.097001 78.2399997,120.208 78.6060015,120.208 C78.7860024,120.208 78.9412508,120.187 79.0717515,120.145 C79.2022522,120.103 79.316251,120.0565 79.4137515,120.0055 C79.511252,119.9545 79.5967511,119.908 79.6702515,119.866 C79.7437519,119.824 79.8150012,119.803 79.8840015,119.803 C79.9290017,119.803 79.9680013,119.812 80.0010015,119.83 C80.0340017,119.848 80.0625014,119.8735 80.0865015,119.9065 L80.4105015,120.3115 C80.2875009,120.455501 80.1495023,120.57625 79.9965015,120.67375 C79.8435007,120.77125 79.6837523,120.84925 79.5172515,120.90775 C79.3507507,120.96625 79.1812524,121.0075 79.0087515,121.0315 C78.8362506,121.0555 78.6690023,121.0675 78.5070015,121.0675 C78.1859999,121.0675 77.8875029,121.014251 77.6115015,120.90775 C77.3355001,120.801249 77.0955025,120.643751 76.8915015,120.43525 C76.6875005,120.226749 76.5270021,119.968752 76.4100015,119.66125 C76.2930009,119.353748 76.2345015,118.997502 76.2345015,118.5925 C76.2345015,118.277498 76.285501,117.981251 76.3875015,117.70375 C76.489502,117.426249 76.6357505,117.184751 76.8262515,116.97925 C77.0167525,116.773749 77.2492501,116.611001 77.5237515,116.491 C77.7982529,116.370999 78.1079998,116.311 78.4530015,116.311 Z M78.4755015,117.1075 C78.1514999,117.1075 77.8980024,117.198999 77.7150015,117.382 C77.5320006,117.565001 77.4150018,117.824498 77.3640015,118.1605 L79.4520015,118.1605 C79.4520015,118.016499 79.4325017,117.880751 79.3935015,117.75325 C79.3545013,117.625749 79.2945019,117.514 79.2135015,117.418 C79.1325011,117.322 79.0305021,117.24625 78.9075015,117.19075 C78.7845009,117.13525 78.6405023,117.1075 78.4755015,117.1075 Z M87.8370017,117.3595 C87.8040015,117.4015 87.7717519,117.4345 87.7402517,117.4585 C87.7087515,117.4825 87.663002,117.4945 87.6030017,117.4945 C87.5460014,117.4945 87.490502,117.47725 87.4365017,117.44275 C87.3825014,117.40825 87.3180021,117.36925 87.2430017,117.32575 C87.1680013,117.28225 87.0787522,117.24325 86.9752517,117.20875 C86.8717512,117.17425 86.7435025,117.157 86.5905017,117.157 C86.3955007,117.157 86.2245024,117.19225 86.0775017,117.26275 C85.930501,117.33325 85.8082522,117.434499 85.7107517,117.5665 C85.6132512,117.698501 85.5405019,117.858249 85.4925017,118.04575 C85.4445015,118.233251 85.4205017,118.445499 85.4205017,118.6825 C85.4205017,118.928501 85.4467514,119.147499 85.4992517,119.3395 C85.551752,119.531501 85.6275012,119.692749 85.7265017,119.82325 C85.8255022,119.953751 85.945501,120.05275 86.0865017,120.12025 C86.2275024,120.18775 86.3865008,120.2215 86.5635017,120.2215 C86.7405026,120.2215 86.8837512,120.19975 86.9932517,120.15625 C87.1027522,120.11275 87.1950013,120.06475 87.2700017,120.01225 C87.3450021,119.95975 87.4102514,119.91175 87.4657517,119.86825 C87.521252,119.82475 87.5835014,119.803 87.6525017,119.803 C87.7425022,119.803 87.8100015,119.8375 87.8550017,119.9065 L88.1745017,120.3115 C88.0515011,120.455501 87.9180024,120.57625 87.7740017,120.67375 C87.630001,120.77125 87.4807525,120.84925 87.3262517,120.90775 C87.1717509,120.96625 87.0120025,121.0075 86.8470017,121.0315 C86.6820009,121.0555 86.5185025,121.0675 86.3565017,121.0675 C86.0715003,121.0675 85.803003,121.014251 85.5510017,120.90775 C85.2990004,120.801249 85.0792526,120.646001 84.8917517,120.442 C84.7042508,120.237999 84.5557522,119.988251 84.4462517,119.69275 C84.3367512,119.397249 84.2820017,119.060502 84.2820017,118.6825 C84.2820017,118.343498 84.3307512,118.029251 84.4282517,117.73975 C84.5257522,117.450249 84.6690008,117.199751 84.8580017,116.98825 C85.0470026,116.776749 85.2810003,116.611001 85.5600017,116.491 C85.8390031,116.370999 86.1599999,116.311 86.5230017,116.311 C86.8680034,116.311 87.1702504,116.366499 87.4297517,116.4775 C87.689253,116.588501 87.9225007,116.747499 88.1295017,116.9545 L87.8370017,117.3595 Z M89.6355018,121 L89.6355018,116.383 L90.2880018,116.383 C90.4020024,116.383 90.4815016,116.404 90.5265018,116.446 C90.571502,116.488 90.6015017,116.559999 90.6165018,116.662 L90.6840018,117.22 C90.8490026,116.934999 91.0425007,116.710001 91.2645018,116.545 C91.4865029,116.379999 91.7355004,116.2975 92.0115018,116.2975 C92.2395029,116.2975 92.4285011,116.349999 92.5785018,116.455 L92.4345018,117.2875 C92.4255018,117.3415 92.406002,117.37975 92.3760018,117.40225 C92.3460017,117.42475 92.3055021,117.436 92.2545018,117.436 C92.2095016,117.436 92.1480022,117.4255 92.0700018,117.4045 C91.9920014,117.3835 91.8885024,117.373 91.7595018,117.373 C91.5285006,117.373 91.3305026,117.436749 91.1655018,117.56425 C91.000501,117.691751 90.8610024,117.878499 90.7470018,118.1245 L90.7470018,121 L89.6355018,121 Z M95.9700019,116.311 C96.2610034,116.311 96.5287507,116.3575 96.7732519,116.4505 C97.0177531,116.5435 97.228501,116.679249 97.4055019,116.85775 C97.5825028,117.036251 97.7205014,117.255249 97.8195019,117.51475 C97.9185024,117.774251 97.9680019,118.070498 97.9680019,118.4035 C97.9680019,118.4875 97.9642519,118.55725 97.9567519,118.61275 C97.9492519,118.66825 97.935752,118.71175 97.9162519,118.74325 C97.8967518,118.77475 97.8705021,118.79725 97.8375019,118.81075 C97.8045017,118.82425 97.7625022,118.831 97.7115019,118.831 L94.8585019,118.831 C94.8915021,119.305002 95.0190008,119.652999 95.2410019,119.875 C95.463003,120.097001 95.7570001,120.208 96.1230019,120.208 C96.3030028,120.208 96.4582512,120.187 96.5887519,120.145 C96.7192526,120.103 96.8332514,120.0565 96.9307519,120.0055 C97.0282524,119.9545 97.1137515,119.908 97.1872519,119.866 C97.2607523,119.824 97.3320016,119.803 97.4010019,119.803 C97.4460021,119.803 97.4850017,119.812 97.5180019,119.83 C97.5510021,119.848 97.5795018,119.8735 97.6035019,119.9065 L97.9275019,120.3115 C97.8045013,120.455501 97.6665027,120.57625 97.5135019,120.67375 C97.3605011,120.77125 97.2007527,120.84925 97.0342519,120.90775 C96.8677511,120.96625 96.6982528,121.0075 96.5257519,121.0315 C96.353251,121.0555 96.1860027,121.0675 96.0240019,121.0675 C95.7030003,121.0675 95.4045033,121.014251 95.1285019,120.90775 C94.8525005,120.801249 94.6125029,120.643751 94.4085019,120.43525 C94.2045009,120.226749 94.0440025,119.968752 93.9270019,119.66125 C93.8100013,119.353748 93.7515019,118.997502 93.7515019,118.5925 C93.7515019,118.277498 93.8025014,117.981251 93.9045019,117.70375 C94.0065024,117.426249 94.1527509,117.184751 94.3432519,116.97925 C94.5337529,116.773749 94.7662505,116.611001 95.0407519,116.491 C95.3152533,116.370999 95.6250002,116.311 95.9700019,116.311 Z M95.9925019,117.1075 C95.6685003,117.1075 95.4150028,117.198999 95.2320019,117.382 C95.049001,117.565001 94.9320022,117.824498 94.8810019,118.1605 L96.9690019,118.1605 C96.9690019,118.016499 96.9495021,117.880751 96.9105019,117.75325 C96.8715017,117.625749 96.8115023,117.514 96.7305019,117.418 C96.6495015,117.322 96.5475025,117.24625 96.4245019,117.19075 C96.3015013,117.13525 96.1575027,117.1075 95.9925019,117.1075 Z M103.240502,121 L102.741002,121 C102.636001,121 102.553502,120.98425 102.493502,120.95275 C102.433502,120.92125 102.388502,120.8575 102.358502,120.7615 L102.259502,120.433 C102.142501,120.538001 102.027753,120.63025 101.915252,120.70975 C101.802751,120.78925 101.686503,120.856 101.566502,120.91 C101.446501,120.964 101.319003,121.0045 101.184002,121.0315 C101.049001,121.0585 100.899003,121.072 100.734002,121.072 C100.539001,121.072 100.359003,121.04575 100.194002,120.99325 C100.029001,120.94075 99.8872526,120.862001 99.768752,120.757 C99.6502514,120.651999 99.5580023,120.521501 99.492002,120.3655 C99.4260017,120.209499 99.393002,120.028001 99.393002,119.821 C99.393002,119.646999 99.4387515,119.475251 99.530252,119.30575 C99.6217525,119.136249 99.7740009,118.983251 99.987002,118.84675 C100.200003,118.710249 100.4835,118.597 100.837502,118.507 C101.191504,118.417 101.630999,118.366 102.156002,118.354 L102.156002,118.084 C102.156002,117.774998 102.090753,117.546251 101.960252,117.39775 C101.829751,117.249249 101.640003,117.175 101.391002,117.175 C101.211001,117.175 101.061003,117.196 100.941002,117.238 C100.821001,117.28 100.716752,117.32725 100.628252,117.37975 C100.539752,117.43225 100.458002,117.4795 100.383002,117.5215 C100.308002,117.5635 100.225502,117.5845 100.135502,117.5845 C100.060502,117.5845 99.9960023,117.565 99.942002,117.526 C99.8880017,117.487 99.8445022,117.439 99.811502,117.382 L99.609002,117.0265 C100.140005,116.540498 100.780498,116.2975 101.530502,116.2975 C101.800503,116.2975 102.041251,116.34175 102.252752,116.43025 C102.464253,116.51875 102.643501,116.641749 102.790502,116.79925 C102.937503,116.956751 103.049252,117.144999 103.125752,117.364 C103.202252,117.583001 103.240502,117.822999 103.240502,118.084 L103.240502,121 Z M101.080502,120.307 C101.194503,120.307 101.299502,120.2965 101.395502,120.2755 C101.491502,120.2545 101.582252,120.223 101.667752,120.181 C101.753252,120.139 101.835752,120.08725 101.915252,120.02575 C101.994752,119.96425 102.075002,119.8915 102.156002,119.8075 L102.156002,119.029 C101.832,119.044 101.561253,119.07175 101.343752,119.11225 C101.126251,119.15275 100.951503,119.2045 100.819502,119.2675 C100.687501,119.3305 100.593752,119.404 100.538252,119.488 C100.482752,119.572 100.455002,119.6635 100.455002,119.7625 C100.455002,119.957501 100.512751,120.097 100.628252,120.181 C100.743753,120.265 100.894501,120.307 101.080502,120.307 Z M106.600502,121.072 C106.2015,121.072 105.894003,120.958751 105.678002,120.73225 C105.462001,120.505749 105.354002,120.193002 105.354002,119.794 L105.354002,117.2155 L104.886002,117.2155 C104.826002,117.2155 104.774252,117.196 104.730752,117.157 C104.687252,117.118 104.665502,117.0595 104.665502,116.9815 L104.665502,116.5405 L105.408002,116.419 L105.642002,115.159 C105.654002,115.099 105.681752,115.0525 105.725252,115.0195 C105.768752,114.9865 105.823502,114.97 105.889502,114.97 L106.465502,114.97 L106.465502,116.4235 L107.680502,116.4235 L107.680502,117.2155 L106.465502,117.2155 L106.465502,119.7175 C106.465502,119.861501 106.501502,119.974 106.573502,120.055 C106.645502,120.136 106.741502,120.1765 106.861502,120.1765 C106.930502,120.1765 106.988252,120.16825 107.034752,120.15175 C107.081252,120.13525 107.121752,120.118 107.156252,120.1 C107.190752,120.082 107.221502,120.06475 107.248502,120.04825 C107.275502,120.03175 107.302502,120.0235 107.329502,120.0235 C107.362502,120.0235 107.389502,120.03175 107.410502,120.04825 C107.431502,120.06475 107.454002,120.0895 107.478002,120.1225 L107.811002,120.6625 C107.649001,120.797501 107.463003,120.8995 107.253002,120.9685 C107.043001,121.0375 106.825503,121.072 106.600502,121.072 Z M110.500502,116.383 L110.500502,121 L109.389002,121 L109.389002,116.383 L110.500502,116.383 Z M110.667002,115.0375 C110.667002,115.1335 110.647502,115.2235 110.608502,115.3075 C110.569502,115.3915 110.517753,115.465 110.453252,115.528 C110.388752,115.591 110.313003,115.64125 110.226002,115.67875 C110.139002,115.71625 110.046003,115.735 109.947002,115.735 C109.851002,115.735 109.760253,115.71625 109.674752,115.67875 C109.589252,115.64125 109.515003,115.591 109.452002,115.528 C109.389002,115.465 109.338752,115.3915 109.301252,115.3075 C109.263752,115.2235 109.245002,115.1335 109.245002,115.0375 C109.245002,114.9385 109.263752,114.8455 109.301252,114.7585 C109.338752,114.6715 109.389002,114.5965 109.452002,114.5335 C109.515003,114.4705 109.589252,114.42025 109.674752,114.38275 C109.760253,114.34525 109.851002,114.3265 109.947002,114.3265 C110.046003,114.3265 110.139002,114.34525 110.226002,114.38275 C110.313003,114.42025 110.388752,114.4705 110.453252,114.5335 C110.517753,114.5965 110.569502,114.6715 110.608502,114.7585 C110.647502,114.8455 110.667002,114.9385 110.667002,115.0375 Z M114.477002,116.311 C114.822004,116.311 115.134751,116.366499 115.415252,116.4775 C115.695754,116.588501 115.935001,116.745999 116.133002,116.95 C116.331003,117.154001 116.484002,117.402999 116.592002,117.697 C116.700003,117.991001 116.754002,118.319498 116.754002,118.6825 C116.754002,119.048502 116.700003,119.378499 116.592002,119.6725 C116.484002,119.966501 116.331003,120.216999 116.133002,120.424 C115.935001,120.631001 115.695754,120.789999 115.415252,120.901 C115.134751,121.012001 114.822004,121.0675 114.477002,121.0675 C114.132001,121.0675 113.818504,121.012001 113.536502,120.901 C113.254501,120.789999 113.013753,120.631001 112.814252,120.424 C112.614751,120.216999 112.460253,119.966501 112.350752,119.6725 C112.241252,119.378499 112.186502,119.048502 112.186502,118.6825 C112.186502,118.319498 112.241252,117.991001 112.350752,117.697 C112.460253,117.402999 112.614751,117.154001 112.814252,116.95 C113.013753,116.745999 113.254501,116.588501 113.536502,116.4775 C113.818504,116.366499 114.132001,116.311 114.477002,116.311 Z M114.477002,120.2125 C114.861004,120.2125 115.145251,120.083501 115.329752,119.8255 C115.514253,119.567499 115.606502,119.189502 115.606502,118.6915 C115.606502,118.193498 115.514253,117.814001 115.329752,117.553 C115.145251,117.291999 114.861004,117.1615 114.477002,117.1615 C114.087,117.1615 113.799003,117.292749 113.613002,117.55525 C113.427001,117.817751 113.334002,118.196498 113.334002,118.6915 C113.334002,119.186502 113.427001,119.563749 113.613002,119.82325 C113.799003,120.082751 114.087,120.2125 114.477002,120.2125 Z M118.372502,121 L118.372502,116.383 L119.052002,116.383 C119.196003,116.383 119.290502,116.450499 119.335502,116.5855 L119.412002,116.95 C119.505003,116.854 119.603252,116.767 119.706752,116.689 C119.810253,116.611 119.919752,116.5435 120.035252,116.4865 C120.150753,116.4295 120.274502,116.386 120.406502,116.356 C120.538503,116.326 120.682502,116.311 120.838502,116.311 C121.090504,116.311 121.314001,116.35375 121.509002,116.43925 C121.704003,116.52475 121.866752,116.644749 121.997252,116.79925 C122.127753,116.953751 122.226752,117.138249 122.294252,117.35275 C122.361753,117.567251 122.395502,117.803499 122.395502,118.0615 L122.395502,121 L121.284002,121 L121.284002,118.0615 C121.284002,117.779499 121.218753,117.561251 121.088252,117.40675 C120.957752,117.252249 120.762004,117.175 120.501002,117.175 C120.309001,117.175 120.129003,117.2185 119.961002,117.3055 C119.793002,117.3925 119.634003,117.510999 119.484002,117.661 L119.484002,121 L118.372502,121 Z" id="path-4"></path>
    </defs>
    <g id="logo" stroke="none" stroke-width="1" fill="none" fill-rule="evenodd">
        <g id="if_image_2428676" fill-rule="nonzero">
            <path d="M121.034747,0.33728 L2.96525333,0.33728 C1.32762667,0.33728 0,1.66490667 0,3.30253333 L0,56.2034133 C0,57.84104 1.32762667,59.1686667 2.96525333,59.1686667 C4.60288,59.1686667 5.93050667,57.84104 5.93050667,56.2034133 L5.93050667,6.26778667 L118.07032,6.26778667 L118.07032,101.7916 L81.2076,63.80544 C80.0907733,62.6555467 78.0687467,62.6555467 76.9527467,63.80544 L61.6966133,79.5278133 L34.8770667,51.8898667 C33.76024,50.7399733 31.7382133,50.7399733 30.6222133,51.8898667 L0.83824,82.5823467 C0.792773333,82.6294667 0.760533333,82.6840267 0.7192,82.7328 C0.639013333,82.82704 0.557173333,82.9196267 0.489386667,83.02296 C0.43896,83.09984 0.40176,83.18168 0.3596,83.2618667 C0.311653333,83.3519733 0.2604,83.4387733 0.221546667,83.53384 C0.18352,83.6272533 0.1612,83.7231467 0.133093333,83.8182133 C0.10664,83.9074933 0.0752266667,83.9942933 0.0578666667,84.0877067 C0.0355466667,84.20592 0.02976,84.3257867 0.0214933333,84.4456533 C0.0165333333,84.51344 0.00165333333,84.5770933 0.00165333333,84.6457067 L0.00165333333,109.101813 C0.00165333333,110.73944 1.32928,112.067067 2.96690667,112.067067 L96.1314133,112.067067 C97.76904,112.067067 99.0966667,110.73944 99.0966667,109.101813 C99.0966667,107.464187 97.76904,106.13656 96.1314133,106.13656 L5.92968,106.13656 L5.92968,85.8493333 L32.7492267,58.2122133 L65.1603467,91.6112 C65.7414933,92.2097067 66.5144267,92.51144 67.2881867,92.51144 C68.03136,92.51144 68.77784,92.2328533 69.3532,91.6740267 C70.5278933,90.5340533 70.5568267,88.6566933 69.4160267,87.4811733 L65.8274667,83.7834933 L79.07976,70.12696 L118.907733,111.16848 C119.477307,111.755413 120.248587,112.06872 121.0364,112.06872 C121.41088,112.06872 121.78784,111.997627 122.149093,111.851307 C123.267573,111.397467 124,110.311227 124,109.103467 L124,3.30253333 C124,1.66490667 122.672373,0.33728 121.034747,0.33728 Z" id="Shape" fill="url(#linearGradient-1)"></path>
            <path d="M91.1904267,47.8797067 C98.81808,47.8797067 105.023867,41.67392 105.023867,34.04544 C105.023867,26.41696 98.81808,20.212 91.1904267,20.212 C83.5627733,20.212 77.3569867,26.4177867 77.3569867,34.04544 C77.3569867,41.6730933 83.5627733,47.8797067 91.1904267,47.8797067 Z M91.1904267,26.14168 C95.5486133,26.14168 99.0941867,29.6872533 99.0941867,34.04544 C99.0941867,38.4036267 95.5486133,41.9492 91.1904267,41.9492 C86.83224,41.9492 83.2866667,38.4036267 83.2866667,34.04544 C83.2866667,29.6872533 86.83224,26.14168 91.1904267,26.14168 Z" id="Shape" fill="url(#linearGradient-2)"></path>
        </g>
        <g id="rimg">
            <use fill-opacity="0" fill="#E45D5D" xlink:href="#path-3"></use>
            <use fill="url(#linearGradient-1)" xlink:href="#path-3"></use>
        </g>
        <g id="responsive-image-cre">
            <use fill-opacity="0.99048913" fill="#C91818" xlink:href="#path-4"></use>
            <use fill="url(#linearGradient-1)" xlink:href="#path-4"></use>
        </g>
    </g>
</svg>